<svg width="329" height="328" viewBox="0 0 329 328" fill="none" xmlns="http://www.w3.org/2000/svg">
<path d="M164.533 318.847C240.221 318.847 301.578 283.423 301.578 239.727C301.578 196.03 240.221 160.606 164.533 160.606C88.8454 160.606 27.4883 196.03 27.4883 239.727C27.4883 283.423 88.8454 318.847 164.533 318.847Z" fill="#F5F5F5"/>
<path d="M88.6136 280.923C105.098 280.923 118.462 273.208 118.462 263.69C118.462 254.173 105.098 246.457 88.6136 246.457C72.129 246.457 58.7656 254.173 58.7656 263.69C58.7656 273.208 72.129 280.923 88.6136 280.923Z" fill="#EBEBEB"/>
<path d="M243.167 280.923C259.652 280.923 273.015 273.208 273.015 263.69C273.015 254.173 259.652 246.457 243.167 246.457C226.683 246.457 213.319 254.173 213.319 263.69C213.319 273.208 226.683 280.923 243.167 280.923Z" fill="#EBEBEB"/>
<path d="M165.798 291.111C184.514 291.111 199.687 282.35 199.687 271.543C199.687 260.735 184.514 251.974 165.798 251.974C147.082 251.974 131.909 260.735 131.909 271.543C131.909 282.35 147.082 291.111 165.798 291.111Z" fill="#EBEBEB"/>
<path d="M31.3322 110.797C33.0023 114.071 33.6687 117.766 33.2477 121.417C32.8541 124.533 31.7718 127.551 32.1654 130.726C32.782 135.738 36.2982 139.733 39.1386 143.675C40.7892 145.789 42.1157 148.137 43.0746 150.642C44.1111 153.725 43.8618 156.933 43.2846 160.082C42.1956 166.065 40.6606 171.686 44.0127 177.243C45.8626 180.3 48.362 182.891 50.1004 186.02C51.9747 189.474 53.1474 193.264 53.551 197.172C53.5903 197.526 54.2726 197.644 54.2397 197.244C54.0087 193.963 53.198 190.75 51.8453 187.752C50.4743 184.721 48.4801 182.176 46.5121 179.526C44.5441 176.875 42.8319 173.95 42.6548 170.493C42.4908 167.265 43.3108 164.083 43.9668 160.948C44.531 158.068 44.9508 155.096 44.3407 152.19C43.7584 149.761 42.726 147.462 41.2969 145.414C38.4236 141.071 34.363 137.102 33.169 131.893C32.2966 128.076 33.825 124.461 34.0743 120.682C34.34 117.182 33.5027 113.686 31.6799 110.685C31.5422 110.462 31.201 110.514 31.3388 110.797H31.3322Z" fill="#37474F"/>
<path d="M30.466 116.399C30.302 115.356 32.0273 112.142 32.434 112.083C32.8408 112.024 35.2352 114.523 35.4123 115.638C35.4244 115.86 35.378 116.081 35.2779 116.279C35.1777 116.477 35.0272 116.645 34.8416 116.766C34.343 117.127 33.766 117.363 33.1581 117.457C32.5502 117.55 31.9288 117.498 31.3451 117.304C31.1297 117.247 30.9338 117.133 30.778 116.973C30.6221 116.814 30.5121 116.616 30.4595 116.399H30.466Z" fill="#BA68C8"/>
<path opacity="0.1" d="M30.466 116.399C30.302 115.356 32.0273 112.142 32.434 112.083C32.8408 112.024 35.2352 114.523 35.4123 115.638C35.4244 115.86 35.378 116.081 35.2779 116.279C35.1777 116.477 35.0272 116.645 34.8416 116.766C34.343 117.127 33.766 117.363 33.1581 117.457C32.5502 117.55 31.9288 117.498 31.3451 117.304C31.1297 117.247 30.9338 117.133 30.778 116.973C30.6221 116.814 30.5121 116.616 30.4595 116.399H30.466Z" fill="black"/>
<path d="M15.0368 95.4922C16.2438 103.508 24.1158 112.666 32.6438 113.316C40.5618 109.734 45.3112 99.0477 44.0779 91.0117C42.8446 82.9757 36.5339 76.3042 27.1859 77.7408C17.8379 79.1774 13.8035 87.4758 15.0368 95.4922Z" fill="#BA68C8"/>
<path opacity="0.05" d="M44.0842 95.3215C44.0842 95.3215 43.1396 103.344 33.6801 105.417C24.601 107.425 15.5876 98.4965 14.8463 91.7856C14.7823 93.0244 14.8461 94.2664 15.0366 95.4921C16.2436 103.508 24.1156 112.666 32.6436 113.316C39.2036 110.35 43.5857 102.505 44.1958 95.3412L44.0842 95.3215Z" fill="black"/>
<path d="M297.74 142.554C296.258 144.621 295.257 146.992 294.807 149.494C294.374 151.981 294.807 154.46 294.932 156.953C295.129 160.233 294.42 162.982 292.242 165.481C290.517 167.449 288.431 169.089 286.87 171.214C283.734 175.485 283.025 180.261 283.668 185.423C284.397 191.268 285.754 196.766 282.94 202.315C281.431 205.294 279.437 208.009 278.381 211.211C277.437 214.327 277.033 217.582 277.187 220.834C277.187 221.195 277.876 221.307 277.882 220.906C277.829 217.804 278.229 214.71 279.07 211.722C279.929 208.98 281.477 206.573 282.881 204.087C284.304 201.747 285.2 199.126 285.505 196.405C285.634 193.958 285.468 191.505 285.013 189.097C284.58 186.296 284.055 183.455 284.193 180.615C284.364 177.795 285.257 175.067 286.784 172.69C289.474 168.42 294.696 165.796 295.594 160.489C296.027 157.917 295.476 155.306 295.352 152.735C295.181 149.166 296.355 145.913 298.081 142.842C298.192 142.652 297.871 142.344 297.726 142.547L297.74 142.554Z" fill="#37474F"/>
<path d="M298.6 148.418C298.823 147.382 297.288 144.069 296.901 143.977C296.514 143.885 293.949 146.24 293.706 147.343C293.679 147.562 293.71 147.785 293.796 147.989C293.882 148.193 294.021 148.37 294.198 148.504C294.675 148.892 295.236 149.163 295.836 149.295C296.436 149.427 297.059 149.417 297.655 149.265C297.873 149.218 298.074 149.116 298.24 148.968C298.406 148.819 298.53 148.63 298.6 148.418Z" fill="#BA68C8"/>
<path opacity="0.1" d="M298.6 148.418C298.823 147.382 297.288 144.069 296.901 143.977C296.514 143.885 293.949 146.24 293.706 147.343C293.679 147.562 293.71 147.785 293.796 147.989C293.882 148.193 294.021 148.37 294.198 148.504C294.675 148.892 295.236 149.163 295.836 149.295C296.436 149.427 297.059 149.417 297.655 149.265C297.873 149.218 298.074 149.116 298.24 148.968C298.406 148.819 298.53 148.63 298.6 148.418Z" fill="black"/>
<path d="M315.327 128.574C313.589 136.492 305.172 145.132 296.631 145.237C288.956 141.15 284.902 130.188 286.647 122.277C288.392 114.365 295.116 108.081 304.359 110.115C313.602 112.148 317.072 120.617 315.327 128.574Z" fill="#BA68C8"/>
<path opacity="0.05" d="M286.352 126.508C286.352 126.508 286.817 134.577 296.087 137.253C305.021 139.831 314.586 131.5 315.767 124.848C315.746 126.091 315.601 127.328 315.334 128.541C313.595 136.459 305.179 145.099 296.638 145.204C290.274 141.819 286.411 133.711 286.26 126.521L286.352 126.508Z" fill="black"/>
<path d="M200.133 28.5934C197.07 28.2916 192.917 33.4084 195.922 35.8684C197.588 37.2329 201.216 36.6425 201.17 34.0906C201.162 34.0199 201.132 33.9534 201.083 33.9014C201.035 33.8493 200.971 33.8144 200.901 33.802C198.493 33.2509 196.105 34.2874 196.512 37.082C196.73 38.2867 197.351 39.3818 198.272 40.1884C199.193 40.995 200.36 41.4656 201.583 41.5231C201.727 41.5231 201.675 41.2738 201.583 41.2476C199.484 40.8081 197.503 39.5026 197.089 37.2591C196.996 36.8621 196.988 36.4497 197.066 36.0494C197.144 35.649 197.306 35.2698 197.542 34.9369C197.823 34.5996 198.193 34.3493 198.611 34.2153C198.972 34.1038 200.264 33.9004 200.579 34.2153C201.143 34.7991 199.608 35.7897 199.149 35.9471C198.696 36.1098 198.212 36.1707 197.732 36.1253C197.253 36.08 196.789 35.9295 196.374 35.6847C195.102 34.7926 195.417 33.1132 196.033 31.9258C196.866 30.3186 198.323 29.0132 200.199 28.9476C200.369 28.9476 200.277 28.6261 200.146 28.613L200.133 28.5934Z" fill="#BA68C8"/>
<path d="M201.15 129.381C202.115 127.21 202.01 124.96 204.817 124.245C206.051 123.93 208.97 123.641 209.895 124.737C210.063 125.001 210.132 125.317 210.087 125.628C210.042 125.938 209.888 126.223 209.652 126.429C208.924 127.085 208.379 126.298 208.189 125.603C208.043 124.961 208.099 124.289 208.351 123.68C208.602 123.072 209.036 122.556 209.593 122.204C210.771 121.429 212.197 121.122 213.59 121.346C214.983 121.569 216.241 122.306 217.117 123.412C217.222 123.543 217.334 123.412 217.288 123.267C215.136 118.314 204.824 121.758 208.104 126.508C209.108 127.944 210.879 126.678 210.544 125.156C210.177 123.471 207.304 123.556 206.031 123.641C204.741 123.642 203.498 124.121 202.541 124.986C201.419 126.088 201.268 127.833 201.032 129.316C201.032 129.381 201.091 129.48 201.137 129.381H201.15Z" fill="#BA68C8"/>
<path d="M274.708 22.8797C276.722 22.2893 279.49 22.4533 281.176 23.8112C282.488 24.8608 283.222 27.1371 281.3 27.9177C280.546 28.2195 278.06 28.2195 277.765 27.1961C277.555 26.4811 278.322 26.0547 278.939 25.9629C280.743 25.6808 282.435 27.5832 282.389 29.2822C282.33 31.8341 279.359 32.6803 277.259 32.7C277.122 32.7 277.154 32.9624 277.259 32.9689C280.835 33.3166 284.823 30.0038 281.642 26.6845C280.789 25.7923 279.45 25.156 278.217 25.648C277.522 25.93 276.971 26.5598 277.318 27.3142C277.876 28.5278 280.12 28.7377 281.209 28.4294C281.497 28.3526 281.767 28.2174 282.001 28.0322C282.236 27.8469 282.43 27.6156 282.571 27.3524C282.713 27.0893 282.799 26.7999 282.824 26.5022C282.849 26.2045 282.813 25.9049 282.717 25.6217C281.838 22.3942 277.318 21.6857 274.642 22.6894C274.563 22.6894 274.596 22.9059 274.688 22.8797H274.708Z" fill="#BA68C8"/>
<path d="M301.098 158.298C303.112 157.707 305.88 157.871 307.566 159.229C308.878 160.279 309.613 162.555 307.691 163.336C306.937 163.638 304.45 163.638 304.155 162.608C303.945 161.899 304.713 161.473 305.323 161.374C307.133 161.099 308.819 163.001 308.78 164.7C308.721 167.252 305.749 168.098 303.65 168.118C303.512 168.118 303.545 168.38 303.65 168.387C307.225 168.735 311.214 165.422 308.032 162.103C307.179 161.21 305.841 160.574 304.608 161.066C303.912 161.342 303.361 161.978 303.709 162.732C304.267 163.946 306.51 164.156 307.599 163.841C307.888 163.766 308.158 163.632 308.393 163.447C308.628 163.263 308.822 163.032 308.964 162.769C309.106 162.506 309.191 162.217 309.216 161.92C309.241 161.622 309.204 161.322 309.108 161.04C308.229 157.806 303.709 157.104 301.033 158.107C300.954 158.107 300.98 158.324 301.078 158.298H301.098Z" fill="#BA68C8"/>
<path d="M286.338 60.2127C283.937 60.9277 281.707 65.1524 283.937 67.0745C285.833 68.7079 289.664 68.3405 289.028 65.2245C289.022 65.189 289.006 65.1557 288.983 65.1281C288.96 65.1004 288.93 65.0794 288.897 65.0671C286.378 64.4636 285.544 67.4024 286.076 69.3442C286.896 72.3618 289.94 72.3224 292.137 70.748C292.209 70.6956 292.177 70.4856 292.072 70.5381C290.274 71.4368 287.755 72.2372 286.66 69.9412C286.076 68.7145 286.056 66.6612 287.184 65.7362C287.478 65.4623 287.865 65.312 288.267 65.3164C289.106 65.4148 288.962 66.3201 288.49 66.8973C287.735 67.8157 286.22 67.7173 285.21 67.3631C281.753 66.1364 284.127 61.6559 286.384 60.3964C286.45 60.357 286.437 60.1865 286.338 60.2127Z" fill="#BA68C8"/>
<path d="M232.947 49.6575C230.113 49.2967 224.019 51.6845 225.606 55.5615C226.453 57.6279 230.231 58.953 231.471 56.5848C231.498 56.5203 231.498 56.448 231.472 56.3831C231.447 56.3183 231.397 56.2659 231.333 56.2372C225.429 52.8916 219.21 62.5544 225.475 66.0772C225.672 66.1887 225.665 65.8541 225.554 65.7688C225.013 65.3988 224.552 64.9246 224.197 64.3741C223.842 63.8236 223.6 63.2078 223.486 62.5627C223.372 61.9177 223.387 61.2563 223.532 60.6174C223.676 59.9784 223.946 59.3747 224.327 58.8415C224.965 57.8225 225.874 57.0004 226.951 56.4667C227.758 56.0863 229.785 55.5483 230.539 56.3355C230.881 56.7029 230.874 56.2437 230.697 56.6701C230.529 56.9234 230.271 57.1038 229.975 57.1752C229.331 57.3798 228.636 57.3566 228.007 57.1096C226.695 56.6504 225.665 55.4434 226.039 53.9936C226.728 51.0875 230.428 50.0576 233.019 50.0117C233.196 50.0117 233.085 49.6771 232.947 49.6575Z" fill="#BA68C8"/>
<path d="M245.844 23.5029C245.844 23.5029 245.673 26.678 248.028 28.4426L250.495 27.6882C250.495 27.6882 248.848 26.901 248.028 23.5029H245.844Z" fill="#455A64"/>
<path d="M204.293 100.366C204.293 100.366 204.116 103.541 206.471 105.306L208.944 104.551C208.944 104.551 207.291 103.764 206.471 100.366H204.293Z" fill="#455A64"/>
<path d="M224.458 136.145C224.458 136.145 224.281 139.313 226.643 141.078L229.109 140.33C229.109 140.33 227.463 139.536 226.643 136.145H224.458Z" fill="#37474F"/>
<path d="M301.774 39.4107C301.774 39.4107 300.331 42.2447 297.412 42.5923L295.647 40.7031C295.647 40.7031 297.471 40.8474 299.885 38.3218L301.774 39.4107Z" fill="#455A64"/>
<path d="M284.856 140.737C284.856 140.737 283.419 143.571 280.493 143.912L278.729 142.029C278.729 142.029 280.559 142.167 282.966 139.641L284.856 140.737Z" fill="#455A64"/>
<path d="M244.48 81.2176C244.48 81.2176 243.043 84.0515 240.117 84.3926L238.353 82.5099C238.353 82.5099 240.183 82.6477 242.59 80.1221L244.48 81.2176Z" fill="#BA68C8"/>
<path d="M218.233 46.2462C218.233 46.2462 216.796 49.0801 213.877 49.4278L212.112 47.5385C212.112 47.5385 213.936 47.6828 216.35 45.1572L218.233 46.2462Z" fill="#455A64"/>
<path d="M272.74 50.5101C272.74 50.5101 269.584 50.9037 267.662 48.6668L268.246 46.1543C268.246 46.1543 269.145 47.7484 272.589 48.3322L272.74 50.5101Z" fill="#BA68C8"/>
<path d="M226.99 35.0221C226.99 35.0221 223.841 35.4157 221.919 33.1853L222.496 30.6729C222.496 30.6729 223.402 32.2604 226.846 32.8508L226.99 35.0221Z" fill="#BA68C8"/>
<path d="M173.939 28.1339C173.939 28.1339 170.79 28.5275 168.868 26.2971L169.445 23.7847C169.445 23.7847 170.351 25.3722 173.788 25.9626L173.939 28.1339Z" fill="#BA68C8"/>
<path d="M211.686 70.4594C211.686 70.4594 208.537 70.8464 206.615 68.616L207.192 66.1035C207.192 66.1035 208.098 67.6976 211.542 68.2814L211.686 70.4594Z" fill="#BA68C8"/>
<path d="M306.078 93.9506C306.078 93.9506 302.922 94.3376 301.007 92.1072L301.584 89.5947C301.584 89.5947 302.489 91.1888 305.927 91.7726L306.078 93.9506Z" fill="#BA68C8"/>
<path d="M251.138 62.1541C251.138 62.1541 249.701 64.988 246.775 65.3357L245.011 63.4464C245.011 63.4464 247.169 63.781 249.603 61.2554L251.138 62.1541Z" fill="#455A64"/>
<path d="M254.312 66.3395C254.312 66.3395 253.748 69.4686 251.032 70.6363L248.802 69.3243C250.38 68.6122 251.691 67.4179 252.548 65.9131L254.312 66.3395Z" fill="#37474F"/>
<path d="M143.435 26.1398C146.505 25.838 150.651 30.9482 147.647 33.4082C145.987 34.7793 142.353 34.1823 142.399 31.6305C142.407 31.5609 142.438 31.4959 142.487 31.4452C142.535 31.3944 142.599 31.3605 142.668 31.3484C145.082 30.7974 147.463 31.8273 147.056 34.6284C146.839 35.8319 146.22 36.926 145.3 37.7316C144.38 38.5372 143.214 39.0066 141.992 39.063C141.841 39.063 141.894 38.8137 141.992 38.794C144.091 38.3479 146.072 37.0425 146.479 34.799C146.574 34.4031 146.583 33.9914 146.504 33.5919C146.426 33.1924 146.263 32.8143 146.026 32.4833C145.743 32.1344 145.361 31.8785 144.931 31.7486C144.577 31.637 143.278 31.4337 142.996 31.7486C142.425 32.339 143.967 33.323 144.426 33.4804C144.878 33.6453 145.361 33.7073 145.84 33.6619C146.318 33.6165 146.781 33.4649 147.194 33.218C148.467 32.3324 148.152 30.653 147.535 29.4591C146.709 27.8585 145.246 26.5465 143.37 26.4874C143.206 26.4874 143.291 26.166 143.422 26.1529L143.435 26.1398Z" fill="#BA68C8"/>
<path d="M138.515 133.671C137.551 131.5 137.649 129.25 134.848 128.528C133.615 128.213 130.696 127.925 129.764 129.027C129.598 129.291 129.53 129.605 129.575 129.914C129.619 130.223 129.773 130.506 130.007 130.713C130.742 131.369 131.319 130.581 131.476 129.893C131.623 129.25 131.567 128.577 131.316 127.967C131.064 127.357 130.63 126.841 130.073 126.488C128.891 125.703 127.457 125.392 126.057 125.617C124.656 125.842 123.392 126.586 122.515 127.702C122.417 127.826 122.306 127.702 122.351 127.557C124.503 122.604 134.815 126.048 131.535 130.798C130.532 132.235 128.754 130.962 129.089 129.447C129.463 127.761 132.369 127.846 133.602 127.925C134.893 127.927 136.138 128.406 137.098 129.269C138.22 130.378 138.371 132.123 138.607 133.599C138.607 133.671 138.548 133.763 138.502 133.671H138.515Z" fill="#BA68C8"/>
<path d="M57.8992 22.8797C55.8853 22.2893 53.117 22.4533 51.4245 23.8112C50.1125 24.8608 49.3843 27.1371 51.3064 27.9177C52.0608 28.2195 54.547 28.2195 54.8422 27.1961C55.0522 26.4811 54.2846 26.0547 53.668 25.9629C51.864 25.6808 50.1715 27.5832 50.2109 29.2822C50.2765 31.8341 53.2482 32.6803 55.3474 32.7C55.4851 32.7 55.4523 32.9624 55.3474 32.9689C51.7722 33.3166 47.7837 30.0038 50.9587 26.6845C51.8181 25.7923 53.1563 25.156 54.3896 25.648C55.085 25.93 55.636 26.5598 55.2883 27.3142C54.7307 28.5278 52.4872 28.7377 51.3982 28.4294C51.1095 28.3526 50.8397 28.2174 50.6053 28.0322C50.3709 27.8469 50.177 27.6156 50.0356 27.3524C49.8942 27.0893 49.8083 26.7999 49.7831 26.5022C49.758 26.2045 49.7942 25.9049 49.8894 25.6217C50.7685 22.3942 55.2818 21.6857 57.9648 22.6894C58.0435 22.6894 58.0107 22.9059 57.9189 22.8797H57.8992Z" fill="#BA68C8"/>
<path d="M34.4736 155.87C32.4597 155.28 29.6914 155.444 27.9989 156.802C26.6869 157.851 25.9522 160.128 27.8808 160.908C28.6352 161.21 31.1149 161.21 31.4167 160.187C31.62 159.472 30.8525 159.045 30.2424 158.954C28.4319 158.671 26.746 160.574 26.7853 162.273C26.8444 164.825 29.816 165.671 31.9152 165.691C32.0596 165.691 32.0202 165.953 31.9152 165.966C28.34 166.307 24.3516 162.994 27.5266 159.675C28.386 158.783 29.7176 158.147 30.9509 158.639C31.6528 158.921 32.2039 159.55 31.8562 160.305C31.2986 161.518 29.0485 161.728 27.9596 161.42C27.6709 161.343 27.4012 161.208 27.167 161.023C26.9328 160.837 26.7393 160.606 26.5984 160.343C26.4575 160.079 26.3723 159.79 26.348 159.492C26.3238 159.195 26.361 158.895 26.4573 158.612C27.3298 155.385 31.8496 154.709 34.5327 155.68C34.6114 155.68 34.5786 155.897 34.4868 155.87H34.4736Z" fill="#BA68C8"/>
<path d="M39.6365 61.4261C42.0375 62.1411 44.2679 66.3657 42.0375 68.2878C40.1416 69.9278 36.3106 69.5539 36.9469 66.4379C36.9541 66.4029 36.9698 66.3702 36.9927 66.3427C37.0156 66.3152 37.045 66.2938 37.0781 66.2805C39.5972 65.6835 40.4303 68.6224 39.8989 70.5642C39.0789 73.5752 36.0351 73.5424 33.8375 71.9614C33.7653 71.9089 33.7981 71.7056 33.9031 71.7581C35.7005 72.6568 38.2196 73.4506 39.3151 71.1546C39.8989 69.9278 39.9186 67.8746 38.7903 66.9562C38.4975 66.6805 38.11 66.5278 37.7079 66.5297C36.8682 66.6281 37.0125 67.54 37.4848 68.1107C38.2392 69.0291 39.7546 68.9307 40.7648 68.5765C44.222 67.3563 41.8472 62.8693 39.5906 61.6097C39.525 61.5704 39.5381 61.3998 39.6365 61.4261Z" fill="#BA68C8"/>
<path d="M47.2658 115.153C43.1789 115.481 43.9137 123.241 47.2133 124.291C47.4161 124.363 47.6313 124.395 47.8464 124.384C48.0615 124.372 48.2722 124.318 48.4663 124.225C48.7084 124.047 48.9027 123.812 49.0321 123.541C49.1614 123.27 49.2217 122.971 49.2076 122.67C48.814 121.358 46.5836 123.025 46.3277 123.543C45.903 124.226 45.7048 125.025 45.7614 125.828C45.8179 126.63 46.1263 127.394 46.6426 128.01C48.322 129.827 51.5364 129.886 53.6356 128.837C53.7405 128.778 53.7602 128.981 53.6881 129.034C51.4249 130.483 47.6332 130.273 45.9538 127.977C44.6418 126.141 45.5406 121.267 48.4663 121.7C51.1953 122.1 49.306 125.209 47.2396 124.796C45.1732 124.383 44.4254 121.641 44.2286 119.941C43.9793 117.803 44.6156 114.917 47.2658 114.962C47.3511 114.962 47.3445 115.146 47.2658 115.153Z" fill="#BA68C8"/>
<path d="M98.5912 49.6575C101.425 49.2967 107.519 51.6845 105.932 55.5615C105.086 57.6279 101.307 58.953 100.067 56.5848C100.041 56.5203 100.04 56.448 100.066 56.3831C100.092 56.3183 100.141 56.2659 100.205 56.2372C106.109 52.8916 112.328 62.5544 106.063 66.0772C105.866 66.1887 105.873 65.8541 105.984 65.7688C106.526 65.3987 106.988 64.9243 107.344 64.3732C107.699 63.8222 107.941 63.2056 108.056 62.5598C108.17 61.914 108.154 61.2518 108.009 60.6122C107.864 59.9725 107.593 59.3683 107.211 58.8349C106.573 57.8159 105.665 56.9939 104.587 56.4602C103.78 56.0797 101.753 55.5418 100.999 56.329C100.658 56.6964 100.664 56.2371 100.841 56.6635C101.01 56.9168 101.267 57.0972 101.563 57.1687C102.207 57.3732 102.902 57.3501 103.531 57.1031C104.843 56.6439 105.873 55.4368 105.499 53.9871C104.81 51.081 101.11 50.0511 98.5191 50.0052C98.342 50.0052 98.4535 49.6706 98.5912 49.6509V49.6575Z" fill="#BA68C8"/>
<path d="M87.0915 29.2756C87.0915 29.2756 87.2686 32.4506 84.907 34.2153L82.4404 33.4543C82.4404 33.4543 84.087 32.6671 84.907 29.269L87.0915 29.2756Z" fill="#455A64"/>
<path d="M138.069 107.851C138.069 107.851 138.246 111.026 135.885 112.791L133.418 112.043C133.418 112.043 135.065 111.249 135.885 107.851H138.069Z" fill="#455A64"/>
<path d="M128.321 145.801C128.321 145.801 128.492 148.976 126.136 150.74L123.67 149.986C123.67 149.986 125.316 149.199 126.136 145.801H128.321Z" fill="#37474F"/>
<path d="M29.7637 39.4107C29.7637 39.4107 31.2069 42.2447 34.1261 42.5923L35.9235 40.7031C35.9235 40.7031 34.0998 40.8474 31.6858 38.3218L29.7637 39.4107Z" fill="#455A64"/>
<path d="M60.2812 137.279C60.2812 137.279 61.7179 140.113 64.6437 140.461L66.4083 138.572C66.4083 138.572 64.5781 138.716 62.1705 136.19L60.2812 137.279Z" fill="#455A64"/>
<path d="M91.3486 84.8912C91.3486 84.8912 92.7853 87.7251 95.711 88.0728L97.4691 86.1835C97.4691 86.1835 95.6454 86.3278 93.2379 83.8022L91.3486 84.8912Z" fill="#BA68C8"/>
<path d="M119.892 47.8009C119.892 47.8009 121.328 50.6348 124.254 50.9825L126.012 49.0932C126.012 49.0932 124.188 49.2375 121.781 46.7119L119.892 47.8009Z" fill="#455A64"/>
<path d="M58.792 50.5101C58.792 50.5101 61.9474 50.9037 63.8694 48.6668L63.2856 46.1543C63.2856 46.1543 62.3869 47.7484 58.9429 48.3322L58.792 50.5101Z" fill="#BA68C8"/>
<path d="M112.676 25.943C112.676 25.943 115.831 26.3366 117.753 24.1062L117.176 21.5938C117.176 21.5938 116.271 23.1813 112.827 23.7717L112.676 25.943Z" fill="#BA68C8"/>
<path d="M119.833 67.809C119.833 67.809 122.982 68.196 124.904 65.9656L124.327 63.4531C124.327 63.4531 123.421 65.0472 119.977 65.631L119.833 67.809Z" fill="#BA68C8"/>
<path d="M17.5557 130.188C17.5557 130.188 20.711 130.581 22.6331 128.351L22.0558 125.832C22.0558 125.832 21.1505 127.426 17.7065 128.01L17.5557 130.188Z" fill="#BA68C8"/>
<path d="M80.4004 62.1541C80.4004 62.1541 81.837 64.988 84.7628 65.3357L86.5274 63.4464C86.5274 63.4464 84.3692 63.781 81.9354 61.2554L80.4004 62.1541Z" fill="#455A64"/>
<path d="M77.252 66.3395C77.252 66.3395 77.8161 69.4686 80.532 70.6363L82.7624 69.3243C81.1842 68.6122 79.8727 67.4179 79.0166 65.9131L77.252 66.3395Z" fill="#37474F"/>
<path d="M180.821 50.0115C180.821 50.0115 179.385 52.8454 176.459 53.1931L174.694 51.3104C174.694 51.3104 176.853 51.6384 179.286 49.1128L180.821 50.0115Z" fill="#455A64"/>
<path d="M166.677 46.6134C166.677 46.6134 166.113 49.7425 163.397 50.9168L161.167 49.6048C162.747 48.8918 164.058 47.6948 164.913 46.187L166.677 46.6134Z" fill="#37474F"/>
<path d="M250.121 202.23C250.189 204.477 250.452 206.714 250.908 208.915C251.997 222.625 253.421 225.846 255.061 235.338C255.238 236.401 255.664 238.507 255.717 239.209C255.795 240.094 256.202 246.792 256.563 248.786C257.081 251.712 261.942 251.784 262.316 248.386C262.565 246.123 261.962 240.153 261.916 239.064C261.916 239.064 261.916 237.136 261.916 236.198C261.916 231.934 262.618 223.734 263.024 216.327C263.333 210.745 262.178 207.97 261.489 205.175C261.489 205.175 262.893 196.129 264.599 186.151C266.304 176.174 270.457 164.746 262.152 155.707L250.692 159.643C250.692 159.643 249.517 177.958 249.963 192.849C250.055 197.1 250.127 200.151 250.121 202.23Z" fill="#FFBDA7"/>
<path d="M244.801 218.38C246.565 220.722 247.694 223.563 248.855 226.252C248.346 227.661 247.668 229.003 246.834 230.247L242.15 224.14C243.062 222.218 243.928 220.296 244.801 218.38Z" fill="#263238"/>
<path d="M246.835 230.254C244.755 230.254 242.669 230.254 240.583 230.254C239.54 228.909 238.484 227.578 237.447 226.233C239.625 226.299 241.803 226.43 244.007 226.489L246.835 230.254Z" fill="black"/>
<path d="M239.284 215.75C240.596 214.786 240.714 215.934 241.843 216.459C242.63 216.826 243.942 217.318 244.709 218.368C245.785 219.837 244.939 222.455 244.414 224.337C243.913 226.169 243.933 228.105 244.473 229.926C245.096 232.642 245.037 234.86 242.958 237.234C241.298 239.137 236.03 241.446 234.22 240.271C231.13 238.303 235.663 233.895 235.598 231.271C235.52 227.929 235.08 224.606 234.286 221.359C234.167 220.841 234.108 220.29 234.423 220.047C235.834 218.781 237.972 216.715 239.284 215.75Z" fill="#37474F"/>
<path d="M241.599 155.693C239.074 158.678 226.885 173.806 223.71 178.981C221.624 182.379 223.054 186.853 224.209 190.593C225.711 195.585 227.849 201.292 229.102 204.972C231.444 211.834 233.176 215.468 235.059 221.411C236.148 222.546 238.096 221.569 239.172 220.808C240.097 220.152 241.087 217.83 240.969 216.662C240.628 213.277 240.674 212.726 240.241 208.79C239.585 202.506 239.703 192.692 235.433 187.017C241.829 179.926 248.841 174.947 253.506 166.649C248.467 163.933 245.279 151.344 241.599 155.693Z" fill="#FFBDA7"/>
<path d="M255.592 238.336C254.798 238.434 254.759 239.071 254.733 242.167C254.776 245.475 254.575 248.781 254.129 252.059C253.552 255.543 252.942 259.275 255.782 262.359C257.449 264.176 260.184 264.602 262.113 261.663C263.91 258.928 265.045 256.337 264.173 253.227C263.368 250.568 262.905 247.817 262.795 245.04C262.657 240.717 262.9 238.408 261.916 238.415V239.071C261.595 239.641 260.604 240.383 258.859 240.455C256.891 240.534 256.005 239.799 255.717 239.215C255.684 238.92 255.638 238.631 255.592 238.336Z" fill="#37474F"/>
<path d="M241.941 152.846C240.681 155.227 236.371 160.233 231.333 167.114C227.85 171.877 221.742 179.106 221.421 182.655C221.099 186.204 229.667 207.471 229.667 207.471C229.667 207.471 236.811 208.311 240.038 204.71C240.15 198.76 239.382 191.531 236.22 187.326C237.624 185.902 247.786 175.321 249.635 173.11C249.635 173.11 249.334 183.527 249.314 189.431C249.294 195.335 249.97 207.143 250.482 210.922C250.993 214.7 251.682 220.309 251.977 222.074C251.977 222.074 256.392 226.154 263.129 221.936C263.129 221.936 263.785 215.98 263.576 213.349C263.366 210.719 262.467 207.543 261.929 205.274C261.929 205.274 264.553 189.241 265.832 182.137C267.111 175.032 269.539 164.169 263.116 153.745C263.143 153.738 251 157.727 241.941 152.846Z" fill="#455A64"/>
<path d="M249.635 173.097C249.635 173.097 245.561 170.512 243.875 167.521C243.875 167.521 244.761 171.077 247.155 173.097L239.939 183.449L249.635 173.097Z" fill="#37474F"/>
<path d="M225.58 109.255C230.632 120.748 237.467 124.756 240.668 132.13C244.709 131.808 250.259 125.078 247.196 120.938C243.739 119.528 232.468 107.556 231.76 102.459C231.137 97.9324 228.611 90.9066 228.677 87.1346C228.703 86.5059 228.955 85.9075 229.385 85.4487C230.612 84.0973 230.599 83.0281 231.353 81.5127C231.957 80.3582 232.632 79.9186 232.436 79.6628C232.178 79.3917 231.827 79.2281 231.453 79.205C231.08 79.1819 230.711 79.3009 230.422 79.5382C229.849 79.9565 229.341 80.4559 228.913 81.0207C229.105 79.6105 229.496 78.2345 230.074 76.9338C231.386 73.8113 231.058 72.2303 226.879 73.3849C224.255 74.113 222.635 76.3172 222.32 82.641C222.17 85.2634 222.185 87.8926 222.366 90.513C222.884 95.3674 223.435 100.018 224.085 104.033C224.358 105.831 224.86 107.586 225.58 109.255Z" fill="#FFBDA7"/>
<path d="M241.462 149.625C241.101 147.933 240.675 144.738 240.419 142.409C236.161 138.421 237.355 134.071 238.904 130.87C242 124.468 244.998 120.833 247.799 120.938L255.474 121.509C259.659 122.001 262.526 122.48 263.536 122.696C266.121 123.26 266.042 125.137 266.16 127.872C266.479 130.689 266.384 133.538 265.878 136.328L262.349 143.957L262.034 148.654C262.034 148.654 266.311 157.241 267.085 162.817C264.946 162.199 263.037 160.965 261.595 159.268C261.595 159.268 258.269 164.287 250.016 164.7C241.764 165.113 237.683 157.779 237.683 157.779L241.462 149.625Z" fill="#BA68C8"/>
<path opacity="0.1" d="M257.96 140.067C257.354 141.239 256.423 142.211 255.277 142.865C254.132 143.519 252.822 143.828 251.505 143.754C250.234 143.725 248.993 143.361 247.908 142.699C246.823 142.037 245.932 141.099 245.325 139.982C245.325 139.982 245.568 145.02 251.518 144.961C257.468 144.902 257.96 140.067 257.96 140.067Z" fill="black"/>
<path d="M259.862 92.7043C262.67 94.154 264.107 95.899 266.422 96.5418C268.738 97.1847 270.608 96.4959 272.326 95.0658C274.294 93.4455 275.226 91.3988 277.266 90.1393C279.306 88.8798 281.858 88.0991 284.121 88.8732C286.955 89.8375 288.53 92.8748 289.264 95.7743C290.17 99.3758 289.829 103.43 287.788 106.585C284.079 112.188 278.54 116.329 272.117 118.301C264.227 120.705 255.711 119.94 248.376 116.169C245.358 114.621 244.387 113.276 242.203 110.764C240.018 108.251 239.205 105.181 239.887 101.114C240.543 97.2241 242.616 94.7182 246.585 92.6386C248.624 91.5301 250.911 90.9548 253.232 90.9663C255.553 90.9777 257.834 91.5756 259.862 92.7043Z" fill="#BA68C8"/>
<path opacity="0.5" d="M259.862 92.7043C262.67 94.154 264.107 95.899 266.422 96.5418C268.738 97.1847 270.608 96.4959 272.326 95.0658C274.294 93.4455 275.226 91.3988 277.266 90.1393C279.306 88.8798 281.858 88.0991 284.121 88.8732C286.955 89.8375 288.53 92.8748 289.264 95.7743C290.17 99.3758 289.829 103.43 287.788 106.585C284.079 112.188 278.54 116.329 272.117 118.301C264.227 120.705 255.711 119.94 248.376 116.169C245.358 114.621 244.387 113.276 242.203 110.764C240.018 108.251 239.205 105.181 239.887 101.114C240.543 97.2241 242.616 94.7182 246.585 92.6386C248.624 91.5301 250.911 90.9548 253.232 90.9663C255.553 90.9777 257.834 91.5756 259.862 92.7043Z" fill="black"/>
<path d="M245.535 97.6108C244.079 98.4243 242.255 101.986 242.216 109.557C242.216 115.966 244.249 117.599 245.279 118.085C246.309 118.57 248.33 118.334 250.291 118.085L250.199 121.935C250.199 121.935 244.656 127.715 249.137 128.39C251.374 128.731 254.24 127.38 256.182 125.917C257.432 124.889 258.334 123.501 258.767 121.942L258.924 113.571C258.924 113.571 260.046 114.719 262.04 113.06C263.687 111.689 264.284 109.327 263.057 108.022C262.738 107.711 262.351 107.481 261.925 107.349C261.5 107.218 261.05 107.19 260.612 107.267C260.174 107.343 259.76 107.523 259.405 107.792C259.05 108.06 258.764 108.408 258.57 108.809C258.57 108.809 257.422 108.874 256.326 106.716C254.4 106.881 252.473 106.401 250.849 105.352C249.488 104.485 248.315 103.353 247.402 102.023C246.489 100.693 245.854 99.1923 245.535 97.6108Z" fill="#FFBDA7"/>
<path d="M250.541 107.739C250.523 107.956 250.59 108.17 250.729 108.337C250.868 108.504 251.066 108.61 251.282 108.632C251.501 108.642 251.715 108.566 251.879 108.42C252.042 108.274 252.141 108.07 252.155 107.851C252.162 107.745 252.148 107.639 252.115 107.538C252.081 107.437 252.028 107.344 251.958 107.264C251.888 107.184 251.803 107.118 251.708 107.071C251.613 107.024 251.51 106.996 251.404 106.988C251.298 106.981 251.191 106.995 251.091 107.028C250.99 107.062 250.897 107.115 250.817 107.185C250.737 107.255 250.671 107.34 250.624 107.435C250.576 107.53 250.548 107.633 250.541 107.739Z" fill="#263238"/>
<g style="mix-blend-mode:multiply" opacity="0.5">
<path d="M249.412 113.08L246.88 113.821C246.923 113.989 247 114.147 247.105 114.285C247.209 114.424 247.341 114.54 247.491 114.627C247.641 114.714 247.807 114.771 247.979 114.793C248.151 114.816 248.326 114.804 248.494 114.759C248.835 114.653 249.121 114.418 249.292 114.105C249.463 113.792 249.506 113.424 249.412 113.08Z" fill="#F0997A"/>
</g>
<path d="M243.318 105.057L244.978 103.968C244.913 103.855 244.826 103.757 244.721 103.68C244.617 103.602 244.497 103.547 244.371 103.517C244.244 103.488 244.113 103.485 243.985 103.508C243.857 103.531 243.735 103.58 243.627 103.653C243.405 103.803 243.25 104.032 243.192 104.293C243.135 104.554 243.18 104.828 243.318 105.057Z" fill="#263238"/>
<path d="M251.748 104.958L253.585 105.719C253.644 105.601 253.678 105.471 253.684 105.339C253.691 105.207 253.669 105.075 253.622 104.952C253.574 104.828 253.502 104.716 253.408 104.622C253.315 104.528 253.203 104.455 253.08 104.407C252.829 104.31 252.551 104.313 252.303 104.416C252.055 104.518 251.856 104.713 251.748 104.958Z" fill="#263238"/>
<path d="M243.705 107.399C243.701 107.557 243.743 107.713 243.826 107.847C243.909 107.982 244.03 108.089 244.173 108.155C244.317 108.221 244.476 108.244 244.633 108.221C244.789 108.197 244.935 108.128 245.052 108.022C245.17 107.916 245.253 107.778 245.293 107.625C245.333 107.472 245.327 107.311 245.275 107.161C245.224 107.012 245.13 106.881 245.005 106.784C244.88 106.687 244.729 106.63 244.571 106.618C244.463 106.612 244.355 106.627 244.252 106.663C244.15 106.699 244.056 106.755 243.976 106.828C243.895 106.9 243.83 106.988 243.783 107.086C243.737 107.184 243.71 107.29 243.705 107.399Z" fill="#263238"/>
<g style="mix-blend-mode:multiply" opacity="0.5">
<path d="M247.582 107.031L247.34 111.879L244.808 111.026L247.582 107.031Z" fill="#F0997A"/>
</g>
<g style="mix-blend-mode:multiply" opacity="0.5">
<path d="M250.292 118.078C252.365 117.862 256.629 116.766 257.331 115.08C257.048 115.923 256.512 116.659 255.796 117.186C254.484 118.242 250.266 119.364 250.266 119.364L250.292 118.078Z" fill="#F0997A"/>
</g>
<path d="M258.57 108.776L258.492 112.142C258.19 112.135 257.893 112.069 257.618 111.947C257.342 111.825 257.093 111.65 256.886 111.432C256.678 111.214 256.515 110.956 256.407 110.675C256.299 110.394 256.247 110.094 256.255 109.793L256.327 106.684L258.57 108.776Z" fill="#BA68C8"/>
<path opacity="0.5" d="M258.57 108.776L258.492 112.142C258.19 112.135 257.893 112.069 257.618 111.947C257.342 111.825 257.093 111.65 256.886 111.432C256.678 111.214 256.515 110.956 256.407 110.675C256.299 110.394 256.247 110.094 256.255 109.793L256.327 106.684L258.57 108.776Z" fill="black"/>
<path d="M280.435 110.206C275.666 121.817 269.762 128.928 265.911 136.354C259.351 136.741 258.754 126.606 261.713 122.395C261.713 122.395 273.114 108.619 274.124 103.561C275.016 99.0803 276.997 91.9365 276.833 88.1645C276.798 87.536 276.531 86.9428 276.086 86.4983C274.833 85.1863 274.819 84.1039 273.999 82.6344C273.343 81.493 272.687 81.0732 272.871 80.8108C273.123 80.5329 273.471 80.3608 273.845 80.3291C274.218 80.2975 274.59 80.4086 274.885 80.6402C275.466 81.0445 275.985 81.5306 276.427 82.0834C276.198 80.6798 275.774 79.3152 275.167 78.0293C273.757 74.9395 274.072 73.3455 278.277 74.4016C280.901 75.0576 282.586 77.2356 283.059 83.5463C283.273 86.1646 283.319 88.794 283.197 91.4183C282.803 96.2858 282.357 100.943 281.812 104.978C281.577 106.772 281.114 108.529 280.435 110.206Z" fill="#FFBDA7"/>
<path d="M149.727 247.461C150.205 248.734 150.92 250 152.351 250.472C155.289 251.45 159.107 248.924 160.688 247.041C162.604 244.758 162.892 242.325 164.296 240.429C165.7 238.533 167.681 237.333 168.639 235.693C169.033 235.08 169.266 234.377 169.315 233.649C169.365 232.922 169.229 232.194 168.921 231.534C168.47 230.712 167.785 230.043 166.953 229.611C166.737 229.48 166.356 229.467 166.12 229.336L149.727 247.461Z" fill="#263238"/>
<path d="M155.834 235.502C155.63 236.682 155.168 237.801 154.483 238.782C153.262 240.409 151.695 241.61 150.258 243.02C149.741 243.437 149.32 243.96 149.025 244.555C148.421 246.13 149.13 247.402 150.238 248.629C150.722 249.07 151.305 249.39 151.937 249.56C152.869 249.816 153.853 249.816 154.784 249.56C156.58 248.945 158.187 247.876 159.448 246.458C161.935 243.676 161.777 240.022 164.742 237.582C167.707 235.142 169.702 232.537 166.678 229.388C165.208 227.853 163.568 227.197 163.129 226.646C162.341 225.669 160.505 227.381 159.921 227.88C159.337 228.378 158.773 228.969 158.176 229.493C157.626 230.112 157.122 230.77 156.667 231.461C156.478 231.654 156.321 231.876 156.201 232.117C156.098 232.439 156.058 232.778 156.083 233.115C156.08 233.917 155.997 234.717 155.834 235.502Z" fill="#37474F"/>
<path d="M159.495 246.438C159.84 246.073 160.152 245.678 160.426 245.257C159.959 243.851 159.035 242.641 157.802 241.82C157.038 241.3 156.171 240.95 155.261 240.792C154.35 240.633 153.416 240.671 152.522 240.901C151.613 241.459 150.754 242.096 149.957 242.804C149.435 243.254 149.039 243.833 148.809 244.483C148.603 245.248 148.633 246.058 148.895 246.806C149.158 247.554 149.639 248.205 150.278 248.675C150.738 249.1 151.301 249.398 151.911 249.541C152.845 249.797 153.831 249.797 154.765 249.541C156.567 248.9 158.189 247.836 159.495 246.438Z" fill="#FAFAFA"/>
<path d="M161.049 221.674L162.821 227.099C162.821 227.099 164.179 228.877 162.04 230.937C159.901 232.996 157.507 232.905 156.477 231.652L153.427 225.892L161.049 221.674Z" fill="#B16668"/>
<path d="M205.651 210.705C206.431 211.073 208.491 211.21 209.626 210.436C211.994 208.823 212.499 204.067 211.758 201.436C210.853 198.248 209.082 196.634 208.478 194.719C207.875 192.803 208.038 190.061 207.238 188.388C206.913 187.74 206.452 187.17 205.886 186.717C205.319 186.264 204.662 185.939 203.958 185.764C203.512 185.642 203.044 185.623 202.59 185.709C202.135 185.794 201.706 185.981 201.334 186.256L200.619 186.781L205.651 210.705Z" fill="#263238"/>
<path d="M199.629 198.661C200.469 199.529 201.088 200.587 201.433 201.744C202.036 203.647 202.089 205.68 202.345 207.648C202.399 208.308 202.57 208.952 202.85 209.551C203.571 210.935 205.218 211.191 206.858 210.981C207.512 210.839 208.124 210.55 208.649 210.135C209.407 209.538 209.986 208.743 210.322 207.839C210.884 206.01 210.97 204.068 210.571 202.197C209.974 198.642 206.399 196.293 206.445 192.79C206.491 189.287 204.437 184.754 200.029 187.076C197.839 188.297 195.848 189.846 194.125 191.668C195.175 193.243 196.25 194.811 197.28 196.398C197.48 196.8 197.734 197.173 198.035 197.507C198.487 197.907 199.078 198.123 199.53 198.556L199.629 198.661Z" fill="#37474F"/>
<path d="M210.571 202.256C210.484 201.766 210.346 201.287 210.158 200.826C208.769 200.339 207.253 200.353 205.874 200.865C204.979 201.144 204.162 201.629 203.49 202.282C202.817 202.936 202.308 203.738 202.003 204.624C201.912 205.687 201.912 206.756 202.003 207.819C202.071 208.504 202.295 209.164 202.659 209.747C203.624 211.145 205.178 211.25 206.818 211.059C207.472 210.916 208.084 210.627 208.609 210.213C209.366 209.615 209.944 208.821 210.282 207.917C210.861 206.086 210.961 204.137 210.571 202.256Z" fill="#FAFAFA"/>
<path d="M195.122 189.517L197.896 189.398C198.614 189.719 199.245 190.206 199.738 190.819C200.23 191.431 200.571 192.152 200.73 192.921C200.858 193.712 200.82 194.521 200.619 195.297C200.418 196.073 200.058 196.798 199.563 197.428L194.971 198.031L195.108 189.7" fill="#B16668"/>
<path d="M195.332 189.162L176.17 189.353C176.17 189.353 179.647 163.644 178.499 148.595L147.745 145.06L147.654 145.25C142.609 158.678 137.282 176.193 134.383 189.392C133.491 193.459 133.95 194.568 137.112 200.544C141.553 208.928 149.11 220.145 154.522 228.66C158.799 228.28 161.082 226.981 162.066 223.445C158.707 215.619 155.867 198.733 148.29 191.57C152.521 184.026 156.49 175.36 160.531 167.036C160.656 172.336 161.187 189.713 163.03 196.87C164.172 201.364 166.665 204.047 171.637 203.253C178.564 202.145 196.867 198.045 196.867 198.045C200.54 197.52 199.622 190.652 195.332 189.162Z" fill="#BA68C8"/>
<path opacity="0.2" d="M195.332 189.162L176.17 189.353C176.17 189.353 179.647 163.644 178.499 148.595L147.745 145.06L147.654 145.25C142.609 158.678 137.282 176.193 134.383 189.392C133.491 193.459 133.95 194.568 137.112 200.544C141.553 208.928 149.11 220.145 154.522 228.66C158.799 228.28 161.082 226.981 162.066 223.445C158.707 215.619 155.867 198.733 148.29 191.57C152.521 184.026 156.49 175.36 160.531 167.036C160.656 172.336 161.187 189.713 163.03 196.87C164.172 201.364 166.665 204.047 171.637 203.253C178.564 202.145 196.867 198.045 196.867 198.045C200.54 197.52 199.622 190.652 195.332 189.162Z" fill="black"/>
<path opacity="0.2" d="M176.19 189.353C176.19 189.353 176.452 192.823 174.97 195.414C176.02 194.43 176.834 193.221 177.351 191.878C178.138 189.74 184.278 190.245 188.87 189.254L176.19 189.353Z" fill="black"/>
<path opacity="0.2" d="M160.525 167.049L160.223 162.207C157.6 160.705 155.271 158.74 153.348 156.408C154.832 158.768 156.678 160.88 158.819 162.666L159.278 166.091L152.587 183.501L160.525 167.049Z" fill="black"/>
<path opacity="0.2" d="M148.296 191.55C147.883 192.152 147.36 192.671 146.755 193.079C148.546 194.06 150.124 195.387 151.399 196.982C152.785 198.866 154.047 200.838 155.178 202.886C153.348 198.412 151.176 194.292 148.296 191.55Z" fill="black"/>
<path d="M136.712 93.7341C137.656 96.1678 149.32 113.414 152.121 117.54C160.085 114.142 154.784 104.781 154.784 104.781C154.784 104.781 146.414 91.2347 145.056 88.9518C144.736 88.3697 144.535 87.7297 144.465 87.0691C144.295 85.8621 143.704 71.0496 144.426 66.5757C144.561 65.7813 144.984 65.0644 145.613 64.5617C147.286 63.2038 147.87 61.9377 149.057 60.3502C149.982 59.0973 150.861 58.7037 150.671 58.3822C150.417 58.016 150.033 57.7597 149.598 57.6647C149.162 57.5698 148.706 57.6433 148.323 57.8705C147.457 58.3438 146.651 58.9186 145.922 59.5827C146.344 57.8637 147.042 56.2243 147.988 54.7283C150.14 51.2909 150.015 49.3688 144.879 49.9657C141.658 50.3397 138.522 52.8325 137.007 60.2256C136.567 62.351 136.469 65.5589 136.305 68.3141C135.951 74.5723 135.714 84.4779 135.832 88.8141C135.872 90.992 135.773 91.3069 136.712 93.7341Z" fill="#B16668"/>
<path d="M159.829 102.99C157.067 102.584 148.021 92.6845 148.021 92.6845C145.495 92.5402 139.302 99.0149 140.529 101.652C144.209 107.779 148.887 113.46 150.159 117.396C151.215 119.613 154.043 117.731 155.263 113.066C156.975 106.618 162.072 103.345 159.829 102.99Z" fill="#BA68C8"/>
<path opacity="0.3" d="M159.829 102.99C157.067 102.584 148.021 92.6845 148.021 92.6845C145.495 92.5402 139.302 99.0149 140.529 101.652C144.209 107.779 148.887 113.46 150.159 117.396C151.215 119.613 154.043 117.731 155.263 113.066C156.975 106.618 162.072 103.345 159.829 102.99Z" fill="black"/>
<path d="M180.302 114.687L179.646 126.442L178.931 151.442C169.859 155.687 156.463 153.128 147.352 145.788C147.352 145.788 147.87 117.016 149.746 110.364C151.622 103.712 154.994 102.393 159.684 102.538C164.637 102.695 171 103.39 171 103.39L176.419 104.834C176.419 104.834 180.414 112.332 180.302 114.687Z" fill="#455A64"/>
<path d="M184.14 95.3281C184.757 95.0133 187.597 96.4302 189.329 98.8771C191.061 101.324 191.179 104.781 190.641 105.437C190.103 106.093 183.13 102.99 183.13 102.99L184.14 95.3281Z" fill="#BA68C8"/>
<path opacity="0.6" d="M184.14 95.3281C184.757 95.0133 187.597 96.4302 189.329 98.8771C191.061 101.324 191.179 104.781 190.641 105.437C190.103 106.093 183.13 102.99 183.13 102.99L184.14 95.3281Z" fill="black"/>
<path d="M195.581 97.1714C194.419 99.5067 181.181 115.572 178 119.423C170.397 115.29 176.557 106.473 176.557 106.473C176.557 106.473 186.147 93.8061 187.722 91.6281C188.096 91.0789 188.359 90.4616 188.496 89.811C188.771 88.6171 190.759 73.9293 190.464 69.4094C190.404 68.6077 190.051 67.856 189.473 67.2971C187.938 65.7817 187.472 64.4763 186.443 62.7707C185.636 61.4587 184.803 60.9667 185.019 60.6453C185.308 60.3055 185.714 60.087 186.156 60.0335C186.599 59.98 187.046 60.0954 187.407 60.3566C188.226 60.9094 188.975 61.5592 189.637 62.2918C189.376 60.5391 188.833 58.8402 188.03 57.2603C186.213 53.6392 186.521 51.7302 191.579 52.8061C194.747 53.4621 197.64 56.2697 198.474 63.7678C198.71 65.9261 198.506 69.1274 198.408 71.8826C198.172 78.1539 197.476 88.0333 196.952 92.3432C196.676 94.5211 196.748 94.8426 195.581 97.1714Z" fill="#B16668"/>
<path d="M174.608 104.479L184.14 95.2954C184.14 95.2954 183.281 103.167 190.628 105.417L179.679 119.266C178.413 121.378 174.943 118.61 174.169 113.873C173.087 107.274 174.608 104.479 174.608 104.479Z" fill="#BA68C8"/>
<path opacity="0.3" d="M174.608 104.479L184.14 95.2954C184.14 95.2954 183.281 103.167 190.628 105.417L179.679 119.266C178.413 121.378 174.943 118.61 174.169 113.873C173.087 107.274 174.608 104.479 174.608 104.479Z" fill="black"/>
<path d="M169.544 82.3328C169.467 84.009 168.894 85.6246 167.899 86.9753C166.903 88.3261 165.53 89.3512 163.951 89.921C162.373 90.4908 160.661 90.5798 159.033 90.1766C157.404 89.7734 155.931 88.8961 154.801 87.6558C153.671 86.4156 152.934 84.868 152.684 83.2088C152.433 81.5497 152.681 79.8535 153.395 78.335C154.108 76.8164 155.256 75.5436 156.694 74.6777C158.131 73.8118 159.793 73.3916 161.469 73.4703C163.714 73.5774 165.825 74.5706 167.339 76.232C168.853 77.8934 169.646 80.0875 169.544 82.3328Z" fill="#263238"/>
<path d="M175.435 88.6499C175.435 88.6499 173.755 95.0328 173.158 96.0693C172.764 96.7171 172.134 97.1872 171.4 97.3813L171.715 92.8417L175.435 88.6499Z" fill="#263238"/>
<path d="M174.149 79.3215C174.632 79.2882 175.115 79.3654 175.563 79.5473C176.011 79.7292 176.411 80.011 176.734 80.3711C177.81 81.5847 177.009 85.1731 175.422 88.6499L172.798 88.8204L174.149 79.3215Z" fill="#263238"/>
<path d="M172.056 88.7877C172.562 89.1223 173.368 88.1645 174.024 87.5216C174.68 86.8788 176.832 86.0653 177.77 88.3088C178.708 90.5524 176.603 93.4584 174.936 93.898C172.056 94.6524 171.722 92.8156 171.722 92.8156L171.013 103.312C167.281 107.661 157.519 106.815 161.829 102.288L161.98 99.1788C160.709 99.3146 159.427 99.3146 158.156 99.1788C156.083 98.7589 154.876 97.0468 154.325 94.7639C153.479 91.0968 153.236 88.1514 154.43 81.0666C155.742 73.2996 164.834 73.6472 169.59 76.9666C174.346 80.286 172.056 88.7877 172.056 88.7877Z" fill="#B16668"/>
<path d="M172.018 89.6601C172.28 89.6601 173.33 88.0791 174.018 87.5215C174.956 86.7474 174.15 79.3215 174.15 79.3215C174.487 78.6869 174.626 77.9655 174.549 77.2509C174.472 76.5362 174.182 75.8612 173.717 75.3134C172.555 73.9095 170.922 72.1777 165.333 72.5713C161.344 72.8534 156.969 73.8833 153.564 72.0137C153.184 73.1345 153.15 74.3436 153.466 75.4841C153.782 76.6246 154.433 77.6439 155.335 78.4097C155.335 78.4097 156.556 79.2887 159.855 79.8463C162.902 80.2159 165.976 80.3038 169.039 80.1087C170.004 80.0169 170.168 80.9615 170.568 83.533C170.942 85.7962 171.138 89.601 172.018 89.6601Z" fill="#263238"/>
<path d="M174.117 79.899L177.331 78.3574C177.241 78.1416 177.108 77.9464 176.94 77.7837C176.772 77.6209 176.573 77.4939 176.355 77.4105C176.136 77.327 175.903 77.2889 175.67 77.2983C175.436 77.3077 175.207 77.3645 174.996 77.4652C174.563 77.678 174.229 78.0506 174.065 78.5046C173.901 78.9586 173.92 79.4585 174.117 79.899Z" fill="#263238"/>
<path d="M161.961 99.2115C161.961 99.2115 166.658 98.4964 168.324 97.7092C169.303 97.2536 170.123 96.5157 170.679 95.5903C170.389 96.5313 169.911 97.4038 169.275 98.1553C168.016 99.6182 161.908 100.451 161.908 100.451L161.961 99.2115Z" fill="#9A4A4D"/>
<path d="M163.647 87.2461C163.644 87.4305 163.696 87.6115 163.796 87.7665C163.896 87.9215 164.039 88.0436 164.208 88.1176C164.377 88.1916 164.564 88.2142 164.745 88.1826C164.927 88.151 165.095 88.0665 165.229 87.9398C165.363 87.8131 165.457 87.6497 165.498 87.47C165.54 87.2904 165.528 87.1025 165.463 86.9298C165.399 86.7571 165.285 86.6073 165.135 86.499C164.986 86.3908 164.808 86.3289 164.624 86.3212C164.499 86.3177 164.375 86.3388 164.258 86.3834C164.141 86.428 164.034 86.4952 163.944 86.5811C163.853 86.667 163.78 86.77 163.729 86.8841C163.678 86.9982 163.65 87.1212 163.647 87.2461Z" fill="#263238"/>
<path d="M164.802 83.7565L166.77 84.9504C166.925 84.6833 166.972 84.3665 166.9 84.0659C166.828 83.7652 166.643 83.504 166.383 83.3366C166.253 83.2546 166.108 83.2002 165.956 83.1769C165.804 83.1537 165.649 83.162 165.501 83.2014C165.352 83.2408 165.213 83.3105 165.093 83.406C164.973 83.5015 164.874 83.6208 164.802 83.7565Z" fill="#263238"/>
<path d="M162.65 93.6357L160.485 94.3311C160.523 94.4752 160.59 94.6102 160.68 94.7282C160.771 94.8462 160.885 94.9448 161.015 95.0182C161.144 95.0916 161.287 95.1382 161.435 95.1554C161.583 95.1726 161.733 95.16 161.876 95.1183C162.175 95.0233 162.423 94.8141 162.568 94.5364C162.713 94.2587 162.743 93.935 162.65 93.6357Z" fill="#9A4A4D"/>
<path d="M155.467 84.0908L157.349 82.7788C157.27 82.6515 157.166 82.5418 157.043 82.4561C156.92 82.3705 156.781 82.3108 156.635 82.2808C156.488 82.2507 156.337 82.2508 156.19 82.2812C156.043 82.3115 155.904 82.3715 155.782 82.4573C155.531 82.6383 155.359 82.9081 155.3 83.2116C155.242 83.5152 155.301 83.8296 155.467 84.0908Z" fill="#263238"/>
<path d="M155.907 86.5905C155.892 86.7185 155.904 86.8482 155.941 86.9715C155.979 87.0948 156.042 87.209 156.125 87.307C156.209 87.405 156.312 87.4847 156.428 87.5411C156.544 87.5975 156.67 87.6294 156.799 87.6348C156.928 87.6402 157.056 87.619 157.177 87.5726C157.297 87.5261 157.406 87.4554 157.498 87.3648C157.59 87.2742 157.662 87.1657 157.709 87.046C157.757 86.9263 157.78 86.798 157.776 86.6692C157.791 86.5411 157.779 86.4114 157.741 86.2881C157.704 86.1649 157.641 86.0506 157.557 85.9527C157.474 85.8547 157.371 85.775 157.255 85.7186C157.139 85.6622 157.012 85.6303 156.884 85.6249C156.755 85.6194 156.626 85.6406 156.506 85.6871C156.386 85.7335 156.276 85.8043 156.185 85.8949C156.093 85.9855 156.021 86.094 155.973 86.2137C155.925 86.3334 155.903 86.4616 155.907 86.5905Z" fill="#263238"/>
<path d="M160.702 85.9341L160.131 91.5298L157.251 90.3883L160.702 85.9341Z" fill="#9A4A4D"/>
<path d="M99.3847 245.959L99.6471 245.047C99.693 246.221 100.021 251.305 101.871 254.349C103.347 256.763 105.472 259.682 105.571 261.926C105.669 264.169 100.933 263.651 99.1486 262.772C97.0822 261.748 94.6222 259.689 93.6382 257.353C92.9428 255.713 92.7198 253.942 92.2474 252.676C91.7751 251.41 90.345 249.724 90.2794 248.392C90.2466 247.664 90.9354 246.293 91.5914 245.158C92.2474 244.023 93.0674 242.921 93.4217 243.138C93.3823 243.276 93.0478 243.886 93.0478 243.886C93.3561 244.542 94.491 245.414 95.9145 245.886C96.8657 246.195 99.1814 246.654 99.3847 245.959Z" fill="#263238"/>
<path d="M57.0074 228.515L57.6634 228.312C57.0074 229.283 54.4621 233.947 54.1538 237.496C53.9045 240.317 53.8848 243.925 52.6319 245.788C51.3789 247.651 47.8693 244.423 46.964 242.659C45.9013 240.612 45.1469 237.49 45.7373 235.03C46.1572 233.298 47.0493 231.75 47.397 230.438C47.7447 229.126 47.62 226.935 48.3548 225.846C48.7615 225.235 50.1325 224.534 51.3527 224.035C52.4744 223.569 53.8717 223.11 54.0292 223.497C53.9176 223.582 53.2813 223.871 53.2813 223.871C53.1501 224.579 53.5372 225.964 54.4031 227.19C55.0805 227.935 56.0067 228.406 57.0074 228.515Z" fill="#263238"/>
<path d="M115.3 206.054C115.956 204.04 117.602 199.763 117.268 197.67C115.831 187.889 112.643 176.731 111.573 173.208C110.137 168.485 108.457 161.518 106.647 153.528C106.693 151.304 106.713 149.323 106.713 149.323L85.7205 151.134C83.2999 157.038 79.4557 167.186 80.912 179.998C81.5854 185.977 81.9226 191.988 81.9223 198.005C79.9543 199.225 77.7698 200.629 76.0183 201.843C71.3344 205.123 54.9213 222.448 54.9213 222.448L53.2288 223.799L53.0976 223.897V223.937C52.1923 225.026 51.1296 229.67 50.2703 232.465C49.6995 234.361 49.4175 237.352 50.736 239.681C51.9824 241.865 53.36 242.403 53.8979 239.969C53.9701 239.097 54.0226 238.237 54.0947 237.437C54.3112 234.957 55.7216 232.117 56.7778 230.3C57.6371 228.824 58.2079 227.584 59.8216 226.541C59.8216 226.541 79.4426 213.736 88.8759 207.714C90.4307 206.745 91.7723 205.471 92.8188 203.968C93.8654 202.464 94.5951 200.764 94.9635 198.969C95.6195 195.571 97.9483 187.207 98.7421 182.996L103.334 200.491C102.291 202.184 100.349 208.199 99.2013 215.579C97.6663 225.419 94.0386 240.461 94.0386 240.461L93.1136 243.899L93.0677 244.056C92.989 245.467 94.8848 249.842 95.8754 252.617C96.5314 254.48 98.0795 257.058 100.507 258.134C102.809 259.151 104.253 258.751 103.229 256.481C102.791 255.731 102.403 254.953 102.068 254.152C101.016 251.875 100.3 249.458 99.9426 246.975C99.7418 245.315 99.9675 243.631 100.599 242.082C100.599 242.082 111.816 216.826 115.3 206.054Z" fill="#FFA8A7"/>
<path d="M84.5459 154.256C84.5459 154.256 80.4459 160.429 79.6193 165.638C78.2023 174.507 80.1375 188.67 80.1375 188.67C80.1375 188.67 82.8665 187.082 83.2535 184.078C83.2535 184.078 84.3819 186.787 86.4483 188.152C89.0395 189.877 93.0083 190.854 98.0267 189.339L98.7286 182.989L99.7191 188.335C102.972 188.642 106.253 188.211 109.316 187.076C114.217 185.2 115.306 179.781 115.306 179.781L106.817 154.25C106.817 154.25 107.296 158.494 97.1804 158.887C87.0649 159.281 84.5459 154.256 84.5459 154.256Z" fill="#455A64"/>
<path d="M121.282 112.259C116.376 123.805 109.586 127.898 106.496 135.311C102.449 135.035 96.8268 128.37 99.8378 124.198C103.275 122.749 114.408 110.639 115.05 105.535C115.621 101.002 118.061 93.9436 117.95 90.1716C117.915 89.5448 117.657 88.9513 117.222 88.4988C115.982 87.1868 115.975 86.0847 115.182 84.6087C114.558 83.4607 113.87 83.0277 114.073 82.7719C114.328 82.4969 114.677 82.3285 115.05 82.3005C115.424 82.2725 115.794 82.387 116.087 82.621C116.662 83.0376 117.176 83.5322 117.615 84.0905C117.403 82.6825 116.995 81.3113 116.402 80.0167C115.024 76.9073 115.359 75.3263 119.557 76.4284C122.181 77.1237 123.834 79.3148 124.228 85.6124C124.408 88.2328 124.423 90.862 124.274 93.4844C123.815 98.3453 123.316 102.996 122.719 107.024C122.467 108.824 121.984 110.583 121.282 112.259Z" fill="#FFA8A7"/>
<path d="M85.2744 152.092L84.9005 147.395L81.2794 139.811C80.7459 137.026 80.6178 134.178 80.8989 131.355C81.017 128.62 80.8989 126.763 83.5229 126.153C84.5331 125.924 87.3933 125.412 91.5786 124.841L99.2407 124.185C102.042 124.041 105.079 127.642 108.254 134.025C109.842 137.213 111.088 141.55 106.876 145.584C106.876 146.417 106.981 149.231 106.876 150.917C103.556 152.608 99.9196 153.585 96.1996 153.787C92.4795 153.99 88.7582 153.412 85.2744 152.092Z" fill="#BA68C8"/>
<path d="M105.368 103.948V103.711C104.679 96.3577 100.461 94.9932 92.7528 95.7804C87.0587 96.3642 81.896 99.0604 80.1773 104.079C79.5421 105.965 79.3502 107.973 79.6164 109.946C79.8826 111.918 80.5998 113.803 81.7123 115.454C84.0674 118.944 88.0493 120.892 93.6778 120.367C101.012 121.227 106.056 111.295 105.368 103.948Z" fill="#263238"/>
<path d="M56.9156 112.174C55.597 111.163 54.5361 109.855 53.8193 108.356C52.6647 105.948 52.1333 102.262 54.8229 100.615C55.1282 100.419 55.4733 100.294 55.8332 100.248C57.0271 100.13 57.9849 101.133 58.9164 101.881C59.8202 102.587 60.8549 103.106 61.9606 103.409C63.0664 103.712 64.2212 103.792 65.3583 103.646C67.8249 103.331 70.029 101.96 71.9642 100.405C72.5587 99.882 73.2206 99.4408 73.9322 99.0933C74.5204 98.8507 75.1465 98.713 75.7821 98.6866C77.893 98.5824 79.9761 99.2027 81.6861 100.445C82.0089 100.63 82.2913 100.878 82.5167 101.175C82.742 101.471 82.9057 101.809 82.9981 102.17C83.0363 102.424 82.9988 102.684 82.8903 102.918C82.7818 103.151 82.6072 103.347 82.3881 103.482C81.8895 103.764 81.2401 103.482 80.7153 103.423C79.3987 103.237 78.0587 103.52 76.9301 104.223C75.8543 104.958 75.1786 106.139 74.457 107.221C72.1741 110.639 68.8023 113.604 64.7417 114.194C63.3684 114.392 61.9696 114.315 60.6263 113.968C59.283 113.621 58.0218 113.011 56.9156 112.174Z" fill="#263238"/>
<path d="M100.31 100.458C101.819 101.166 103.918 104.59 104.449 112.141C104.895 118.537 102.98 120.308 101.983 120.859C100.986 121.41 98.952 121.318 96.9775 121.181L97.3317 125.012C97.3317 125.012 103.236 130.391 98.8405 131.375C96.6364 131.873 93.6844 130.719 91.6245 129.407C90.3059 128.467 89.3094 127.142 88.7709 125.615L88.0362 117.277C88.0362 117.277 86.9932 118.498 84.894 116.982C83.1556 115.729 82.3946 113.414 83.5295 112.023C83.8257 111.692 84.1962 111.436 84.6106 111.276C85.0251 111.116 85.4715 111.056 85.9134 111.102C86.3552 111.148 86.7798 111.299 87.1523 111.541C87.5247 111.783 87.8344 112.11 88.0559 112.495C88.0559 112.495 89.2104 112.495 90.1551 110.252C92.0872 110.284 93.9752 109.673 95.5212 108.513C96.8212 107.563 97.9156 106.359 98.7385 104.975C99.5615 103.59 100.096 102.054 100.31 100.458Z" fill="#FFA8A7"/>
<path d="M96.0134 110.901C96.0498 111.113 96.0015 111.331 95.8788 111.508C95.756 111.685 95.5688 111.806 95.3574 111.846C95.1413 111.87 94.9242 111.809 94.7526 111.675C94.581 111.542 94.4685 111.346 94.439 111.131C94.4164 111.023 94.4162 110.912 94.4383 110.804C94.4605 110.696 94.5045 110.593 94.5677 110.503C94.6309 110.413 94.712 110.336 94.8059 110.278C94.8998 110.221 95.0046 110.183 95.1137 110.167C95.2229 110.151 95.3341 110.158 95.4405 110.187C95.5468 110.216 95.6462 110.266 95.7323 110.335C95.8185 110.404 95.8896 110.49 95.9413 110.587C95.9931 110.684 96.0243 110.791 96.0331 110.901H96.0134Z" fill="#263238"/>
<g style="mix-blend-mode:multiply" opacity="0.5">
<path d="M97.5088 116.149L100.087 116.72C100.055 116.891 99.9904 117.053 99.8957 117.199C99.801 117.344 99.6784 117.469 99.535 117.567C99.3917 117.664 99.2304 117.732 99.0605 117.767C98.8906 117.802 98.7155 117.803 98.5453 117.77C98.1962 117.687 97.893 117.471 97.6996 117.169C97.5062 116.867 97.4378 116.501 97.5088 116.149Z" fill="#F28F8F"/>
</g>
<path d="M103.038 107.726L101.307 106.755C101.365 106.641 101.445 106.54 101.543 106.457C101.641 106.375 101.754 106.313 101.877 106.275C101.999 106.237 102.128 106.224 102.255 106.237C102.383 106.249 102.506 106.287 102.619 106.349C102.854 106.479 103.029 106.696 103.107 106.953C103.185 107.21 103.161 107.487 103.038 107.726Z" fill="#263238"/>
<path d="M94.636 108.185L92.8517 109.071C92.7907 108.958 92.7529 108.834 92.7407 108.707C92.7285 108.579 92.742 108.45 92.7806 108.328C92.8191 108.205 92.8819 108.092 92.9651 107.994C93.0483 107.896 93.1503 107.817 93.265 107.759C93.5049 107.643 93.7802 107.622 94.0348 107.701C94.2895 107.78 94.5044 107.954 94.636 108.185Z" fill="#263238"/>
<path d="M102.836 110.088C102.852 110.245 102.822 110.404 102.749 110.544C102.676 110.684 102.563 110.8 102.425 110.877C102.287 110.953 102.129 110.988 101.971 110.976C101.813 110.963 101.663 110.905 101.538 110.808C101.413 110.711 101.319 110.579 101.269 110.429C101.218 110.279 101.213 110.118 101.253 109.965C101.294 109.812 101.378 109.674 101.497 109.569C101.615 109.464 101.761 109.395 101.918 109.373C102.134 109.347 102.352 109.407 102.524 109.541C102.696 109.675 102.808 109.871 102.836 110.088Z" fill="#263238"/>
<g style="mix-blend-mode:multiply" opacity="0.5">
<path d="M98.9189 109.989L99.4962 114.811L101.969 113.788L98.9189 109.989Z" fill="#F28F8F"/>
</g>
<g style="mix-blend-mode:multiply" opacity="0.5">
<path d="M96.9777 121.181C94.8982 121.102 90.562 120.282 89.7617 118.675C90.1075 119.487 90.6935 120.174 91.4411 120.643C92.8056 121.601 97.1089 122.427 97.1089 122.427L96.9777 121.181Z" fill="#F28F8F"/>
</g>
<path d="M81.7578 100.726L82.7024 97.2759C82.9324 97.3264 83.1498 97.423 83.3414 97.5598C83.5331 97.6965 83.6951 97.8707 83.8177 98.0717C83.9402 98.2727 84.0209 98.4965 84.0547 98.7295C84.0885 98.9625 84.0748 99.2 84.0144 99.4276C83.8781 99.8931 83.5673 100.288 83.1469 100.53C82.7264 100.772 82.2288 100.842 81.7578 100.726Z" fill="#263238"/>
<path d="M81.4563 101.022L79.4883 98.0435C79.6773 97.9046 79.8925 97.8054 80.1209 97.7519C80.3493 97.6984 80.5862 97.6916 80.8172 97.7321C81.0483 97.7725 81.2688 97.8593 81.4654 97.9873C81.6621 98.1152 81.8308 98.2816 81.9614 98.4764C82.2197 98.8845 82.3114 99.3762 82.2174 99.85C82.1234 100.324 81.8509 100.743 81.4563 101.022Z" fill="#263238"/>
<path d="M88.0752 112.489L88.3901 115.847C88.6903 115.819 88.9821 115.733 89.2487 115.592C89.5154 115.451 89.7517 115.259 89.9442 115.027C90.1367 114.795 90.2816 114.527 90.3706 114.239C90.4596 113.951 90.491 113.648 90.463 113.348L90.1744 110.245L88.0752 112.489Z" fill="#263238"/>
<path d="M66.4471 113.84C71.354 125.392 77.3433 132.431 81.2793 139.811C87.8393 140.12 88.3247 129.971 85.3136 125.799C85.3136 125.799 73.7484 112.154 72.6791 107.123C71.7279 102.649 69.6681 95.5246 69.7796 91.7526C69.8091 91.1247 70.0682 90.5294 70.5077 90.0799C71.7476 88.7679 71.7476 87.6723 72.5479 86.1963C73.1645 85.0418 73.8599 84.6154 73.6565 84.353C73.3984 84.0812 73.0481 83.9157 72.6743 83.889C72.3005 83.8623 71.9301 83.9763 71.6361 84.2086C71.0631 84.623 70.5508 85.1154 70.1141 85.6715C70.3229 84.2636 70.7293 82.8922 71.3212 81.5978C72.6988 78.4949 72.3642 76.9074 68.1724 78.016C65.5484 78.672 63.8953 80.8958 63.5017 87.2C63.3225 89.836 63.3137 92.4808 63.4754 95.1179C63.9281 99.9789 64.4266 104.636 65.0236 108.658C65.277 110.438 65.7553 112.18 66.4471 113.84Z" fill="#FFA8A7"/>
<path d="M99.7191 188.158L98.7285 183.265L99.7453 173.936C101.895 173.031 103.92 171.851 105.767 170.427C104.628 172.051 103.237 173.484 101.648 174.671L99.3845 182.694L99.7191 188.158Z" fill="#37474F"/>
<path opacity="0.1" d="M89.2764 143.459C89.8975 144.622 90.8414 145.581 91.9946 146.222C93.1478 146.862 94.4614 147.155 95.7773 147.067C97.0484 147.022 98.2851 146.643 99.3622 145.966C100.439 145.29 101.319 144.341 101.911 143.216C101.911 143.216 101.727 148.254 95.7773 148.267C89.8274 148.28 89.2764 143.459 89.2764 143.459Z" fill="black"/>
</svg>
