<svg width="19" height="14" viewBox="0 0 19 14" fill="none" xmlns="http://www.w3.org/2000/svg">
<path d="M18.5306 1.28104L6.53055 13.281C6.4609 13.3508 6.37818 13.4061 6.28713 13.4438C6.19609 13.4816 6.09849 13.501 5.99993 13.501C5.90137 13.501 5.80377 13.4816 5.71272 13.4438C5.62168 13.4061 5.53896 13.3508 5.4693 13.281L0.219304 8.03104C0.0785732 7.89031 -0.000488281 7.69944 -0.000488281 7.50042C-0.000488281 7.30139 0.0785732 7.11052 0.219304 6.96979C0.360034 6.82906 0.550906 6.75 0.749929 6.75C0.948952 6.75 1.13982 6.82906 1.28055 6.96979L5.99993 11.6901L17.4693 0.219792C17.61 0.0790612 17.8009 -1.48284e-09 17.9999 0C18.199 1.48284e-09 18.3898 0.0790612 18.5306 0.219792C18.6713 0.360522 18.7503 0.551394 18.7503 0.750417C18.7503 0.94944 18.6713 1.14031 18.5306 1.28104Z" fill="#05603A"/>
</svg>
