<svg width="185" height="184" viewBox="0 0 185 184" fill="none" xmlns="http://www.w3.org/2000/svg">
<path d="M93.5778 177.887C141.689 177.887 180.691 156.877 180.691 130.96C180.691 105.043 141.689 84.0327 93.5778 84.0327C45.4666 84.0327 6.46484 105.043 6.46484 130.96C6.46484 156.877 45.4666 177.887 93.5778 177.887Z" fill="#F0F0F0"/>
<path d="M93.3025 148.76C106.867 148.76 117.863 142.412 117.863 134.581C117.863 126.751 106.867 120.402 93.3025 120.402C79.7382 120.402 68.7422 126.751 68.7422 134.581C68.7422 142.412 79.7382 148.76 93.3025 148.76Z" fill="#E0E0E0"/>
<path d="M44.9139 156.293C59.8114 156.293 71.8883 149.321 71.8883 140.72C71.8883 132.118 59.8114 125.146 44.9139 125.146C30.0163 125.146 17.9395 132.118 17.9395 140.72C17.9395 149.321 30.0163 156.293 44.9139 156.293Z" fill="#E0E0E0"/>
<path d="M138.865 157.71C153.763 157.71 165.839 150.738 165.839 142.136C165.839 133.535 153.763 126.563 138.865 126.563C123.967 126.563 111.891 133.535 111.891 142.136C111.891 150.738 123.967 157.71 138.865 157.71Z" fill="#E0E0E0"/>
<path d="M152.983 124.406C152.983 124.406 152.067 115.633 154.481 109.142C156.895 102.65 161.134 98.0059 165.734 96.6296C170.334 95.2533 175.207 99.9784 170.842 104.023C166.478 108.067 158.235 113.013 156.531 124.962L152.983 124.406Z" fill="#BA68C8"/>
<path opacity="0.15" d="M152.983 124.406C152.983 124.406 152.067 115.633 154.481 109.142C156.895 102.65 161.134 98.0059 165.734 96.6296C170.334 95.2533 175.207 99.9784 170.842 104.023C166.478 108.067 158.235 113.013 156.531 124.962L152.983 124.406Z" fill="black"/>
<path d="M153.911 122.448H153.856C153.785 122.438 153.722 122.401 153.679 122.345C153.637 122.288 153.618 122.217 153.627 122.147C155.526 108.273 163.909 100.545 168.075 98.3996C168.138 98.3674 168.211 98.3615 168.278 98.3833C168.312 98.394 168.343 98.4113 168.369 98.4339C168.396 98.4566 168.418 98.4844 168.434 98.5155C168.45 98.5467 168.459 98.5807 168.462 98.6156C168.465 98.6505 168.461 98.6856 168.45 98.719C168.439 98.7523 168.422 98.7831 168.4 98.8098C168.377 98.8365 168.349 98.8584 168.318 98.8743C164.237 100.976 156.027 108.564 154.157 122.22C154.149 122.281 154.12 122.337 154.075 122.378C154.03 122.42 153.972 122.445 153.911 122.448Z" fill="white"/>
<path d="M155.283 130.791C155.394 129.701 155.312 128.599 155.04 127.538C154.775 126.401 154.091 125.33 154.036 124.138C153.991 123.188 154.584 122.114 155.257 121.473C155.931 120.833 156.869 120.347 157.336 119.512C157.804 118.676 157.704 117.602 157.936 116.649C158.188 115.59 158.841 114.67 159.759 114.084C160.677 113.498 161.786 113.292 162.853 113.51C163.846 113.716 164.722 114.268 165.631 114.717C166.527 115.216 167.558 115.417 168.575 115.291C169.691 115.077 170.822 114.954 171.957 114.923C173.889 114.923 176.318 115.582 176.98 117.624C177.17 118.124 177.188 118.673 177.032 119.184L177.01 119.247C176.45 120.631 174.688 120.914 173.554 121.591C173.245 121.779 172.726 122.04 172.608 122.415C172.491 122.791 172.815 123.306 172.976 123.652C173.389 124.546 173.985 125.407 174.04 126.419C174.114 127.865 172.907 129.256 171.688 129.871C170.491 130.414 169.175 130.643 167.865 130.537C167.217 130.508 166.511 130.452 165.977 130.824C165.759 131.005 165.582 131.23 165.455 131.483C165.328 131.736 165.255 132.013 165.241 132.296C165.171 132.855 165.223 133.426 165.171 133.989C165.058 134.876 164.708 135.716 164.159 136.421C163.61 137.127 162.882 137.672 162.051 138C160.659 138.528 159.12 138.51 157.741 137.949C156.608 137.503 155.636 136.142 155.416 134.957C155.185 133.58 155.14 132.179 155.283 130.791Z" fill="#BA68C8"/>
<path d="M155.75 134.096H155.732C155.704 134.092 155.677 134.082 155.653 134.068C155.629 134.053 155.608 134.034 155.591 134.012C155.574 133.989 155.562 133.963 155.555 133.936C155.548 133.909 155.547 133.881 155.551 133.853C157.421 120.509 170.812 116.98 174.025 116.822C174.081 116.82 174.136 116.84 174.178 116.877C174.22 116.915 174.245 116.968 174.249 117.024C174.251 117.052 174.248 117.08 174.238 117.107C174.229 117.134 174.215 117.158 174.196 117.179C174.177 117.2 174.154 117.217 174.128 117.229C174.103 117.241 174.075 117.248 174.047 117.249C170.9 117.403 157.803 120.855 155.974 133.912C155.968 133.965 155.941 134.014 155.899 134.049C155.857 134.083 155.804 134.1 155.75 134.096Z" fill="white"/>
<path d="M170.084 125.702C170.04 125.7 169.997 125.684 169.962 125.657C169.926 125.628 166.036 122.625 160.376 124.185C160.349 124.193 160.321 124.196 160.293 124.192C160.266 124.189 160.239 124.18 160.214 124.167C160.19 124.153 160.169 124.135 160.152 124.113C160.135 124.09 160.122 124.065 160.115 124.038C160.1 123.983 160.108 123.924 160.136 123.875C160.164 123.825 160.211 123.789 160.266 123.773C161.939 123.284 163.7 123.17 165.422 123.439C167.145 123.709 168.786 124.354 170.231 125.33C170.275 125.366 170.303 125.418 170.309 125.474C170.315 125.53 170.299 125.587 170.264 125.632C170.242 125.657 170.214 125.676 170.183 125.689C170.151 125.701 170.117 125.705 170.084 125.702Z" fill="white"/>
<path d="M30.1427 120.354C30.7352 116.995 30.6359 111.199 28.1482 105.057C25.4875 98.4842 21.3917 93.7407 17.2664 94.3847C13.4208 94.9845 13.4871 100.096 18.2085 106.352C21.5205 110.739 24.7258 116.159 25.701 121.952L27.7507 129.536L30.1427 120.354Z" fill="#BA68C8"/>
<path d="M30.1427 120.354C30.7352 116.995 30.6359 111.199 28.1482 105.057C25.4875 98.4842 21.3917 93.7407 17.2664 94.3847C13.4208 94.9845 13.4871 100.096 18.2085 106.352C21.5205 110.739 24.7258 116.159 25.701 121.952L27.7507 129.536L30.1427 120.354Z" fill="#BA68C8"/>
<g opacity="0.15">
<path d="M30.1427 120.354C30.7352 116.995 30.6359 111.199 28.1482 105.057C25.4875 98.4842 21.3917 93.7407 17.2664 94.3847C13.4208 94.9845 13.4871 100.096 18.2085 106.352C21.5205 110.739 24.7258 116.159 25.701 121.952L27.7507 129.536L30.1427 120.354Z" fill="black"/>
</g>
<path d="M29.1523 122.776C29.1044 122.763 29.0615 122.737 29.0293 122.699C28.9971 122.662 28.9771 122.615 28.9719 122.566C28.0372 112.579 23.5403 101.568 18.5318 96.9091C18.5076 96.8876 18.4879 96.8615 18.4738 96.8324C18.4597 96.8033 18.4515 96.7717 18.4496 96.7394C18.4478 96.7071 18.4523 96.6748 18.4629 96.6442C18.4735 96.6136 18.49 96.5855 18.5115 96.5613C18.533 96.5372 18.5591 96.5175 18.5882 96.5034C18.6173 96.4893 18.6489 96.4811 18.6812 96.4792C18.7135 96.4773 18.7459 96.4818 18.7764 96.4924C18.807 96.503 18.8351 96.5196 18.8593 96.5411C23.9635 101.251 28.523 112.413 29.4687 122.503C29.4749 122.567 29.4555 122.631 29.4148 122.681C29.3742 122.73 29.3155 122.762 29.2516 122.768C29.2191 122.776 29.1856 122.778 29.1523 122.776Z" fill="white"/>
<path d="M28.5523 131.284C26.4445 132.656 24.0128 133.45 21.5014 133.584C17.159 133.886 15.4515 131.674 15.4515 131.674C15.4515 131.674 17.4902 127.807 20.0183 126.89C20.0183 126.89 15.8231 127.365 12.3198 129.282C12.3198 129.282 9.70329 129.095 9.00777 125.01C9.00777 125.01 10.7705 122.747 16.0807 121.904C16.0807 121.904 12.9895 120.833 8.33065 121.595C7.96265 121.698 6.97273 116.41 6.74089 113.992C6.50905 111.574 7.47689 111.681 9.36473 111.35C11.2526 111.018 17.6116 111.261 18.6825 112.384C19.7534 113.506 20.0367 117.05 20.0367 117.05C20.0367 117.05 21.4131 114.687 21.1407 112.542C22.8356 112.501 24.5172 112.849 26.0572 113.558C26.5172 113.771 26.7638 117.326 25.4059 120.034C26.8275 118.621 27.855 116.86 28.3867 114.927C30.9185 116.822 31.5147 119.074 31.6987 121.091C31.9047 123.468 31.5441 128.432 28.5523 131.284Z" fill="#BA68C8"/>
<path d="M28.531 131.523C28.4859 131.52 28.4427 131.504 28.4067 131.476C28.3708 131.449 28.3436 131.411 28.3286 131.369C25.5024 123.887 13.3915 114.415 8.8688 113.116C8.83807 113.107 8.80941 113.092 8.78444 113.072C8.75947 113.052 8.7387 113.027 8.72331 112.999C8.70793 112.971 8.69823 112.94 8.69478 112.909C8.69133 112.877 8.69419 112.845 8.7032 112.814C8.72198 112.753 8.76346 112.702 8.819 112.671C8.87453 112.641 8.93983 112.632 9.00128 112.648C13.5976 113.973 25.9109 123.596 28.7813 131.199C28.8027 131.259 28.7997 131.325 28.7728 131.383C28.746 131.441 28.6975 131.486 28.6378 131.508C28.6041 131.523 28.5673 131.528 28.531 131.523Z" fill="white"/>
<path d="M71.7896 56.304L56.6317 49.577L56.2637 41.297C59.2077 41.1203 60.1387 41.7607 61.4635 42.5813C63.4029 43.7773 70.0747 47.2107 73.2174 48.6864L76.7907 38.7504C77.8195 38.6176 78.8304 38.3708 79.8046 38.0144C80.8645 37.536 82.0457 38.1616 82.0457 38.1616C82.0457 38.1616 78.8846 53.4704 77.6923 56.304C77.0115 57.9122 74.4024 57.4448 71.7896 56.304Z" fill="#FFA8A7"/>
<path d="M56.2676 41.2786C56.2676 41.2786 58.2327 40.6787 60.8897 42.0146C63.5466 43.3504 69.5818 46.6256 69.5818 46.6256C69.5818 46.6256 67.7418 51.6562 65.5817 54.3352L57.9567 51.0821L56.2676 41.2786Z" fill="#455A64"/>
<path d="M80.0148 106.635C80.1068 102.197 80.9753 99.1429 81.0783 97.9138C81.0783 97.9138 80.7508 71.5245 80.7508 67.2447L103.25 66.3284C103.25 66.3284 102.514 94.0204 102.514 97.6857C102.514 101.351 100.181 119.766 99.493 127.012C98.1903 128.712 96.6668 128.829 94.6207 127.166C94.6207 127.166 94.4514 126.154 94.1865 122.813C93.8773 118.989 93.2665 110.087 93.2297 106.341C93.1855 101.726 93.1487 99.6912 93.2812 97.4685C93.4394 94.9256 92.8285 77.7695 92.8285 77.7695C92.8285 77.7695 90.0097 94.1344 89.3068 99.6912C88.5045 106.061 85.9285 124.715 85.9212 128.59C85.9212 129.286 85.9212 130.092 85.9212 130.964C85.9212 133.061 85.8623 133.617 86.1972 134.43C86.786 135.851 81.7554 136.741 81.5236 135.733L80.9826 131.564V131.442V128.8C81.0047 124.844 79.8823 113.068 80.0148 106.635Z" fill="#B16668"/>
<path d="M109.429 133.79C109.565 134.198 109.54 134.643 109.359 135.034C109.186 135.402 107.287 136.469 104.726 136.296C102.828 136.167 101 135.531 99.4305 134.456C98.4516 133.808 97.4359 133.687 96.17 133.617C94.9041 133.547 93.226 132.91 92.9574 132.318C92.6888 131.725 92.9979 130.702 92.9979 130.702L109.429 133.79Z" fill="#263238"/>
<path d="M99.103 125.801L99.3054 125.757C99.4158 125.727 99.5311 125.721 99.644 125.738C99.7683 125.777 99.8784 125.851 99.9605 125.952C100.211 126.272 100.431 126.616 100.616 126.978C101.153 127.854 102.279 128.579 103.508 129.242C104.347 129.691 105.168 130.04 106.029 130.43C106.89 130.82 108.079 131.067 108.77 131.534C109.775 132.211 109.904 133.915 108.77 134.589C107.784 135.166 105.182 135.796 102.459 135.023C100.987 134.603 99.3238 133.017 97.3771 132.863C96.137 132.767 93.7928 132.417 92.9942 131.475C92.6998 131.06 93.0936 129.735 93.4175 128.594C93.7855 127.346 94.0357 125.389 94.4478 125.499C94.4611 125.723 94.4856 125.947 94.5215 126.169C94.5656 126.36 94.7717 126.537 94.8894 126.684L95.3679 127.236C95.5605 127.492 95.8019 127.707 96.0781 127.869C96.5675 128.119 97.1527 128.013 97.6899 127.898C97.7157 127.898 97.4691 126.92 97.4434 126.824C97.4173 126.748 97.411 126.667 97.425 126.588C97.457 126.512 97.5141 126.448 97.5869 126.408C98.044 126.101 98.5606 125.895 99.103 125.801Z" fill="#455A64"/>
<path d="M91.0989 141.047C91.2498 141.191 91.2057 142.151 91.0364 142.427C90.8671 142.703 89.8293 143.586 87.9672 143.722C86.1861 143.848 84.5964 143.608 83.5512 142.946C82.5061 142.284 82.002 141.551 81.9026 140.536C81.8033 139.52 81.9026 138.545 81.4352 137.765C80.99 137.029 80.2761 136.234 80.1215 135.84C79.7866 134.993 80.1215 133.775 80.1215 133.775L91.0989 141.047Z" fill="#263238"/>
<path d="M86.245 132.197C86.2601 132.581 86.3295 132.961 86.4511 133.326C86.728 134.111 87.0987 134.86 87.5551 135.556C87.7765 135.922 88.0224 136.273 88.2911 136.605C88.8284 137.246 89.4981 137.768 90.0685 138.383C90.6782 138.962 91.0684 139.734 91.1725 140.569C91.2498 141.963 89.7337 142.438 88.5671 142.648C87.3052 142.868 86.01 142.803 84.7767 142.456C84.1291 142.287 83.5442 141.934 83.0919 141.441C82.6396 140.948 82.3391 140.334 82.2265 139.674C82.1602 139.288 82.186 138.89 82.1381 138.5C81.9851 137.609 81.6119 136.771 81.0525 136.061C80.7288 135.647 80.45 135.201 80.2209 134.728C79.8529 133.867 80.1473 132.888 80.3828 132.035C80.5815 131.299 80.8097 130.449 81.0709 130.518C81.0709 130.905 81.0709 130.945 81.3469 131.207C81.7149 131.538 81.7149 132.035 82.0829 132.311C81.963 131.989 81.8767 131.656 81.8253 131.317C81.8022 131.181 81.8297 131.041 81.9026 130.923C82.0262 130.814 82.1737 130.736 82.3332 130.695C82.8825 130.508 83.4498 130.378 84.026 130.309C84.5742 130.217 85.1338 130.217 85.682 130.309C85.8444 130.337 85.9916 130.422 86.0978 130.548C86.1938 130.689 86.2451 130.856 86.245 131.026C86.245 131.251 86.2156 131.829 86.245 132.197Z" fill="#455A64"/>
<path d="M87.7176 135.851C87.1987 135.461 86.0358 135.453 85.3992 135.523C84.7513 135.578 84.1281 135.797 83.5886 136.16C83.5085 136.216 83.4113 136.242 83.3139 136.234C83.2164 136.226 83.1249 136.184 83.055 136.116C83.014 136.077 82.9822 136.029 82.9617 135.976C82.9412 135.923 82.9326 135.867 82.9364 135.81C82.9403 135.754 82.9566 135.699 82.984 135.649C83.0115 135.599 83.0496 135.557 83.0955 135.523C83.6908 135.091 84.3963 134.836 85.1305 134.787C86.6982 134.677 87.1582 134.946 87.1582 134.946C87.1582 134.946 87.8648 135.387 87.7176 135.851Z" fill="#F5F5F5"/>
<path d="M88.906 137.264C88.2547 136.878 86.9703 136.933 86.33 137.003C85.6948 137.067 85.0878 137.298 84.571 137.673C84.4918 137.73 84.3945 137.758 84.2967 137.751C84.1989 137.743 84.107 137.701 84.0374 137.632C83.997 137.593 83.9657 137.545 83.9455 137.492C83.9254 137.439 83.917 137.383 83.9208 137.326C83.9247 137.27 83.9407 137.215 83.9678 137.166C83.9949 137.116 84.0325 137.073 84.0779 137.04C84.6818 136.58 85.4018 136.299 86.1571 136.226C87.7247 136.116 88.1332 136.436 88.1332 136.436C88.3166 136.506 88.4816 136.617 88.6155 136.761C88.7495 136.904 88.8488 137.076 88.906 137.264Z" fill="#F5F5F5"/>
<path d="M84.5005 133.268C85.1601 133.153 85.838 133.21 86.4693 133.433C86.7453 133.588 86.9256 134.026 86.749 134.136C86.1967 133.912 85.5969 133.829 85.0046 133.897C84.4168 133.953 83.8431 134.11 83.3082 134.36C83.1757 134.419 83.0138 134.504 82.8776 134.581C82.8336 134.606 82.7848 134.622 82.7344 134.628C82.684 134.633 82.633 134.628 82.5846 134.613C82.5363 134.598 82.4915 134.573 82.4533 134.539C82.4151 134.506 82.3841 134.465 82.3624 134.419C82.3247 134.342 82.3178 134.253 82.3431 134.17C82.3683 134.087 82.4239 134.017 82.4986 133.974C83.1073 133.597 83.7901 133.356 84.5005 133.268Z" fill="#F5F5F5"/>
<path d="M102.353 128.568C102.264 128.397 102.133 128.251 101.973 128.144C101.813 128.037 101.628 127.971 101.436 127.954C100.873 127.85 99.876 128.266 99.2578 128.774C99.1989 128.822 99.1525 128.883 99.1229 128.953C99.0932 129.023 99.0811 129.099 99.0877 129.174C99.0942 129.25 99.1192 129.323 99.1604 129.386C99.2016 129.45 99.2578 129.503 99.324 129.54C99.4075 129.586 99.5034 129.605 99.5984 129.595C99.6934 129.584 99.7827 129.544 99.854 129.481C100.536 128.862 101.433 128.535 102.353 128.568Z" fill="#F5F5F5"/>
<path d="M104.1 129.536C103.977 129.362 103.814 129.221 103.625 129.124C103.436 129.026 103.227 128.976 103.014 128.977C103.014 128.977 101.542 129.021 100.629 129.867C100.574 129.914 100.531 129.973 100.503 130.04C100.475 130.107 100.464 130.179 100.47 130.251C100.477 130.323 100.5 130.393 100.538 130.454C100.577 130.515 100.63 130.566 100.692 130.603C100.772 130.648 100.864 130.666 100.955 130.655C101.046 130.645 101.132 130.606 101.2 130.544C101.577 130.169 102.033 129.884 102.535 129.71C103.037 129.535 103.572 129.476 104.1 129.536Z" fill="#F5F5F5"/>
<path d="M106.029 130.43C105.89 130.269 105.716 130.14 105.522 130.053C105.328 129.965 105.116 129.92 104.903 129.922C104.066 129.973 103.267 130.289 102.622 130.824C102.566 130.871 102.523 130.93 102.495 130.997C102.468 131.064 102.456 131.136 102.463 131.208C102.469 131.28 102.492 131.35 102.531 131.411C102.569 131.472 102.622 131.523 102.684 131.56C102.764 131.605 102.856 131.623 102.948 131.612C103.039 131.602 103.124 131.563 103.192 131.501C103.548 131.113 103.991 130.815 104.483 130.629C104.976 130.443 105.506 130.375 106.029 130.43Z" fill="#F5F5F5"/>
<path d="M89.6639 100.928L91.916 86.0127L92.8691 97.9948C92.9464 98.9737 92.6962 102.602 92.7587 105.598C92.8213 108.593 94.124 122.069 94.124 122.069C94.124 122.069 96.6743 123.814 100.067 122.069C100.159 121.793 101.966 106.459 102.128 104.49C102.33 102.054 102.684 99.8495 102.765 97.774C102.846 95.6984 102.993 91.4076 102.96 88.1324C102.927 84.8572 103.239 66.3284 103.239 66.3284L80.2909 66.3983L80.0039 97.4722C79.864 98.1677 79.0802 104.689 79.2863 107.953C79.4923 111.217 80.876 126.39 80.876 126.39C80.876 126.39 82.9442 127.711 86.0575 126.39C86.0575 126.39 87.9858 110.934 88.5415 108.019C89.0971 105.105 89.4651 102.238 89.6639 100.928Z" fill="#37474F"/>
<path d="M91.916 86.0127L92.6115 79.6868C94.818 79.4403 96.9325 78.6652 98.7755 77.4272C98.7755 77.4272 98.4075 78.2368 96.4829 79.4991C95.7042 80.0067 94.8495 80.3868 93.9511 80.6252L93.2371 85.6594L92.8691 97.774L91.916 86.0127Z" fill="#263238"/>
<path d="M97.8359 34.0325C100.809 34.0325 102.145 34.5955 103.595 36.3619C105.045 38.1283 111.938 47.4019 111.938 47.4019C111.938 47.4019 116.81 42.7688 119.298 40.4651C120.851 38.868 122.374 37.304 124.041 36.8256C125.782 36.3251 124.913 39.5635 125.605 39.8285L123.548 42.824C123.548 42.824 115.956 52.9293 113.303 54.4969C112.383 55.0416 111.411 56.2118 108.847 54.1289C105.479 51.3873 99.3705 44.5058 99.3705 44.5058L97.8359 34.0325Z" fill="#B16668"/>
<path d="M96.6289 34.0289C99.3742 33.5652 101.115 33.3923 103.595 36.0014C106.075 38.6105 110.874 45.9742 110.874 45.9742C110.874 45.9742 110.591 49.7536 105.722 51.2329L98.1966 45.9742L96.6289 34.0289Z" fill="#455A64"/>
<path d="M80.0148 69.552C83.1023 71.8004 97.101 74.2918 103.596 69.552C103.596 69.552 103.445 51.4059 102.937 41.8011C102.912 41.3668 102.882 40.9436 102.838 40.5315C102.838 40.3953 102.805 40.2592 102.79 40.123C102.719 39.5497 102.609 38.9817 102.463 38.4228C102.437 38.3308 102.408 38.2388 102.378 38.1468C102.319 37.9393 102.247 37.7354 102.165 37.536C102.124 37.4292 102.08 37.3225 102.032 37.2195C101.99 37.1213 101.942 37.0255 101.889 36.9324C101.883 36.9146 101.876 36.8974 101.867 36.8809C101.819 36.7889 101.764 36.6969 101.712 36.6086C101.661 36.5203 101.594 36.4172 101.524 36.3179C101.454 36.2185 101.399 36.1376 101.337 36.0566C101.274 35.9756 101.186 35.8726 101.105 35.7843C101.03 35.6976 100.95 35.6153 100.866 35.5377L100.696 35.3795C100.643 35.3277 100.587 35.2798 100.527 35.236C100.454 35.1734 100.373 35.1145 100.295 35.0593C100.041 34.8816 99.7729 34.7253 99.493 34.592C99.4141 34.5508 99.3331 34.5139 99.2501 34.4816C99.2317 34.4816 99.206 34.4816 99.1949 34.4558L98.9042 34.3454C98.7379 34.2814 98.5684 34.2261 98.3964 34.1798C98.2234 34.132 98.0284 34.0878 97.8554 34.0436C97.6825 33.9995 97.4138 34.0436 97.1636 34.0436H96.6484C96.4681 34.0436 96.2804 34.0436 96.0964 34.0436C93.6676 34.1504 91.1026 33.6756 88.3058 34.0142C88.1218 34.04 82.2706 34.695 80.9201 35.1844C79.6615 35.6444 78.5281 37.8819 78.2484 39.122C77.413 42.7726 81.093 54.6259 81.093 54.6259L80.0148 69.552Z" fill="#BA68C8"/>
<path d="M87.484 34.6985C87.3515 35.1512 88.22 36.5128 89.6221 37.1421C91.0242 37.7713 93.0886 38.0621 94.4061 37.6094C95.7235 37.1568 97.3133 35.5155 95.9259 34.0545C93.545 34.1318 91.0315 33.6865 88.2973 34.0214C88.2862 34.0177 87.6202 34.2459 87.484 34.6985Z" fill="#455A64"/>
<path opacity="0.3" d="M103.003 43.1958C100.648 44.0164 96.7805 44.6678 91.9156 44.9512C87.4309 45.1738 82.9353 44.9272 78.502 44.2152C79.0356 47.3137 79.974 50.8392 80.5701 52.8889C89.0746 54.6222 98.8045 53.2569 103.298 51.8328C103.217 48.6827 103.129 45.7644 103.003 43.1958Z" fill="black"/>
<path d="M88.1615 21.2704L87.3004 22.2125L86.8588 17.3476C86.5096 17.3069 86.1558 17.3464 85.8242 17.4631C85.4926 17.5798 85.1919 17.7706 84.9452 18.021C84.1246 18.86 84.5772 21.4912 85.6076 24.0672C85.6076 24.0672 86.6049 28.7556 87.006 29.5247C87.271 30.0008 87.7102 30.3557 88.2314 30.5146L88.1615 21.2704Z" fill="#263238"/>
<path d="M88.0524 24.2878C87.6844 24.5123 87.1361 23.7874 86.6724 23.3016C86.2087 22.8158 84.6889 22.1498 83.9308 23.7432C83.1727 25.3366 84.6006 27.5189 85.7966 27.8942C87.8537 28.5419 88.1628 27.2208 88.1628 27.2208L88.3026 34.7942C90.4591 38.695 97.7566 36.6968 95.0223 34.1098V32.1851C96.0563 32.2605 97.0943 32.2605 98.1282 32.1851C99.6444 31.9533 100.266 30.9045 100.726 29.2632C101.462 26.632 101.742 24.505 101.116 19.3272C100.432 13.6526 93.83 13.5938 90.2641 15.8349C86.6982 18.076 88.0524 24.2878 88.0524 24.2878Z" fill="#B16668"/>
<path d="M87.1675 14.2452C88.4179 13.711 89.7237 13.3173 91.061 13.0713C93.9424 12.4457 96.8754 11.8716 99.5029 10.5431C99.8091 10.3436 100.168 10.2399 100.533 10.2451C101.229 10.3371 101.531 11.1761 101.56 11.8753C101.586 12.524 101.501 13.1723 101.31 13.7926C101.52 13.5926 101.8 13.4832 102.09 13.488C102.38 13.4928 102.656 13.6115 102.859 13.8183C103.051 14.0359 103.192 14.2946 103.269 14.5745C103.346 14.8545 103.358 15.1484 103.304 15.4339C103.135 16.7219 102.149 17.7964 100.982 18.3779C99.785 18.8988 98.49 19.1573 97.1845 19.1359C95.3678 19.1848 93.551 19.043 91.7639 18.7127C91.3346 18.606 90.8903 18.5737 90.4501 18.6171C90.2304 18.6428 90.0222 18.7295 89.8492 18.8673C89.6762 19.0052 89.5453 19.1888 89.4712 19.3972C89.2799 20.1148 89.0811 24.9871 88.0839 25.0239C87.8999 25.0239 87.1896 23.7985 86.7259 23.3606C86.1445 22.8123 85.5594 18.6355 85.4563 17.8627C85.4433 17.8028 85.4154 17.7471 85.3754 17.7007C84.7203 16.7807 85.4895 15.2351 86.2991 14.731C86.5787 14.552 86.8687 14.3898 87.1675 14.2452Z" fill="#263238"/>
<path d="M85.7327 17.7486C85.6157 17.8859 85.4729 17.9988 85.3123 18.0808C85.1517 18.1629 84.9766 18.2125 84.7968 18.2268C84.6171 18.2412 84.4363 18.22 84.2647 18.1645C84.0932 18.1089 83.9342 18.0202 83.797 17.9032C83.6597 17.7863 83.5469 17.6434 83.4648 17.4829C83.3828 17.3223 83.3332 17.1471 83.3188 16.9674C83.3045 16.7876 83.3257 16.6068 83.3812 16.4353C83.4367 16.2637 83.5255 16.1048 83.6424 15.9675L85.7327 17.7486Z" fill="#263238"/>
<path d="M95.0137 32.1814C95.0137 32.1814 91.6318 31.8576 90.4505 31.2283C89.7569 30.8662 89.1887 30.3031 88.8203 29.6128C88.998 30.3041 89.3134 30.9525 89.7477 31.519C90.6125 32.623 95.0174 33.2229 95.0174 33.2229L95.0137 32.1814Z" fill="#9A4A4D"/>
<path d="M93.9727 23.4378C93.967 23.5703 93.9224 23.6982 93.8446 23.8056C93.7668 23.913 93.6591 23.9952 93.535 24.042C93.4109 24.0887 93.2757 24.098 93.1464 24.0686C93.017 24.0393 92.8992 23.9726 92.8074 23.8768C92.7156 23.7811 92.654 23.6604 92.6302 23.53C92.6063 23.3995 92.6213 23.2649 92.6733 23.1429C92.7254 23.0208 92.8121 22.9168 92.9227 22.8436C93.0333 22.7704 93.163 22.7313 93.2956 22.7312C93.3865 22.7331 93.4761 22.7529 93.5593 22.7895C93.6425 22.826 93.7177 22.8786 93.7806 22.9442C93.8434 23.0098 93.8928 23.0872 93.9258 23.1719C93.9587 23.2565 93.9747 23.3469 93.9727 23.4378Z" fill="#263238"/>
<path d="M93.263 20.8802L91.8131 21.6787C91.7094 21.4803 91.6868 21.2493 91.7499 21.0345C91.8131 20.8197 91.9571 20.6377 92.1517 20.5269C92.2474 20.475 92.3526 20.443 92.461 20.4328C92.5694 20.4225 92.6787 20.4343 92.7825 20.4672C92.8862 20.5002 92.9822 20.5538 93.0648 20.6247C93.1474 20.6957 93.2148 20.7826 93.263 20.8802Z" fill="#263238"/>
<path d="M94.286 28.1189L96.1812 28.8255C96.1387 28.9516 96.0714 29.068 95.9831 29.1676C95.8948 29.2672 95.7874 29.3481 95.6673 29.4054C95.5472 29.4628 95.4167 29.4954 95.2837 29.5013C95.1508 29.5072 95.0179 29.4864 94.8932 29.44C94.6426 29.3387 94.4402 29.1456 94.3273 28.9C94.2144 28.6544 94.1997 28.375 94.286 28.1189Z" fill="#9A4A4D"/>
<path d="M99.9598 21.4433L98.6387 20.4277C98.6996 20.3373 98.7783 20.2603 98.8701 20.2015C98.9618 20.1426 99.0646 20.1032 99.1722 20.0857C99.2797 20.0681 99.3898 20.0727 99.4955 20.0992C99.6012 20.1258 99.7003 20.1737 99.7868 20.24C99.9658 20.3792 100.084 20.5823 100.116 20.8068C100.148 21.0312 100.092 21.2594 99.9598 21.4433Z" fill="#263238"/>
<path d="M99.5522 23.2429C99.5547 23.3337 99.539 23.4241 99.5062 23.5088C99.4734 23.5935 99.424 23.6708 99.361 23.7363C99.2979 23.8017 99.2225 23.8539 99.1391 23.8899C99.0557 23.9259 98.966 23.9449 98.8751 23.9458C98.7351 23.9509 98.5968 23.9141 98.4779 23.8401C98.3589 23.766 98.2649 23.6581 98.2077 23.5302C98.1505 23.4023 98.1329 23.2603 98.157 23.1223C98.1811 22.9843 98.246 22.8567 98.3432 22.7558C98.4404 22.6549 98.5655 22.5853 98.7025 22.556C98.8395 22.5268 98.9821 22.5391 99.1121 22.5915C99.242 22.6438 99.3533 22.7338 99.4318 22.8499C99.5102 22.966 99.5522 23.1028 99.5522 23.2429Z" fill="#263238"/>
<path d="M96.2832 22.7607L96.5077 26.8345L98.6347 26.1095L96.2832 22.7607Z" fill="#9A4A4D"/>
<path d="M84.1544 34.5552C79.6353 34.7686 78.2995 35.4789 76.7944 38.7209C75.6904 41.0909 70.1704 55.7299 69.1584 58.3501C68.2715 60.6869 68.1537 61.8865 70.0894 63.4837C72.0251 65.0808 73.9755 66.5675 75.9774 68.0432C77.1955 68.9448 78.2885 69.9237 79.5176 70.8069C81.4533 72.1942 83.3448 73.7509 85.4056 74.9174C87.8712 76.3195 92.3277 78.1632 94.6755 75.5945C95.1392 75.0867 95.5697 74.4905 95.3158 73.7545C95.1193 73.2811 94.7641 72.8907 94.3112 72.6505C93.8614 72.4121 93.3909 72.215 92.9054 72.0617C91.8186 71.671 90.7713 71.1781 89.7774 70.5897C90.6349 70.3174 91.5733 70.3837 92.4454 70.2217C92.692 70.177 92.9148 70.0467 93.0747 69.8537C93.1561 69.759 93.2008 69.6382 93.2008 69.5133C93.2008 69.3885 93.1561 69.2677 93.0747 69.1729C92.967 69.092 92.8403 69.04 92.7067 69.0221C91.48 68.7473 90.2399 68.513 88.9862 68.3192C87.8277 68.1853 86.6819 67.9577 85.5601 67.6384C83.7533 67.0496 82.6161 65.7211 81.3281 64.4C79.9187 62.9537 78.5755 61.456 77.2801 59.903L83.3006 45.7387C83.3006 45.7387 86.4102 37.6133 84.1544 34.5552Z" fill="#B16668"/>
<path d="M84.7975 34.4595C83.0643 34.5552 80.3815 34.7612 79.1267 35.5635C77.6731 36.4945 77.1247 37.2121 75.6822 40.7449C74.2396 44.2777 71.4023 51.6708 71.4023 51.6708C72.3754 52.9335 73.6456 53.936 75.0999 54.589C76.5542 55.2419 78.1473 55.5252 79.7375 55.4134L84.5215 44.3734C84.5215 44.3734 86.7479 38.5148 84.7975 34.4595Z" fill="#455A64"/>
<path d="M91.6901 74.3359C91.1197 71.9991 93.2504 70.0008 94.98 68.8159C97.648 66.9759 100.014 65.8719 102.763 64.2232C105.266 62.7144 112.927 57.3821 112.927 57.3821C112.927 57.3821 116.891 51.1445 119.603 46.3716C122.966 40.4652 125.612 36.6895 131.243 37.3666L131.191 44.4911C131.191 44.4911 119.172 60.8229 118.433 61.7024C117.693 62.582 117.395 62.9757 116.125 63.5424C112.684 65.1322 108.331 67.1194 104.872 69.2759C103.884 69.8815 103.111 70.7827 102.664 71.8519C102.292 72.7081 101.812 73.5132 101.236 74.2476C100.955 74.6064 100.653 74.948 100.331 75.2706C100.114 75.484 99.7125 75.922 99.3849 75.8888C99.3071 75.8768 99.2332 75.8465 99.1692 75.8004C99.1053 75.7544 99.0531 75.6939 99.0169 75.6239C98.9449 75.4801 98.9083 75.3211 98.9102 75.1602C98.8882 74.1776 99.6094 73.3202 99.7088 72.3377C99.7088 72.2493 99.5947 72.2935 99.5763 72.2088C99.5579 72.1242 98.0418 73.0037 97.9093 73.092C97.3694 73.4675 96.8509 73.873 96.3563 74.3064C95.8558 74.737 95.359 75.1786 94.8475 75.5944C94.609 75.8267 94.3084 75.9851 93.9819 76.0503C93.6554 76.1156 93.317 76.0851 93.0075 75.9624C92.6798 75.8078 92.3911 75.5812 92.163 75.2996C91.9349 75.018 91.7733 74.6886 91.6901 74.3359Z" fill="#FFBDA7"/>
<path d="M131.964 37.3005C130.165 36.9325 125.756 36.9803 123.761 39.6594C121.656 42.4819 115.146 53.176 115.146 53.176C115.146 53.176 116.81 56.7456 121.678 57.96L130.036 46.5741L131.964 37.3005Z" fill="#455A64"/>
<path d="M147.207 148.116C147.354 148.694 147.66 150.324 150.699 150.324C153.739 150.324 155.483 149.077 156.076 147.535C156.668 145.993 156.33 144.845 156.275 143.487C156.219 142.129 157.22 141.279 157.441 140.543C157.769 139.472 156.874 137.996 156.874 137.996L147.207 148.116Z" fill="#263238"/>
<path d="M117.987 138.191C117.906 138.433 117.877 138.689 117.901 138.942C117.925 139.196 118.002 139.441 118.127 139.663C118.348 139.961 120.387 141.441 122.911 141.135C124.758 140.955 126.534 140.335 128.093 139.328C129.565 138.46 130.577 138.335 132.074 138.338C133.572 138.342 134.595 138.062 134.72 137.683C134.937 137.025 134.952 136.601 134.636 136.613L117.987 138.191Z" fill="#263238"/>
<path d="M153.362 112.976C152.972 109.777 151.898 106.699 150.212 103.953C150.212 103.953 148.74 82.2405 147.489 70.8325H125.012C125.012 70.8325 125.681 100.416 126.042 104.755C126.318 108.067 128.589 128.829 128.592 128.87L128.92 132.333C130.683 133.22 132.066 133.087 133.568 132.009L133.888 128.943C133.888 128.943 135.728 115.78 135.842 112.641C135.969 109.96 135.672 107.277 134.962 104.689L137.689 89.9428C137.689 89.9428 139.868 100.365 141.101 106.201C142.51 112.888 150.669 134.784 150.669 134.791L151.188 136.613C151.073 138.6 155.854 137.245 155.802 135.681C155.795 135.685 154.264 119.773 153.362 112.976Z" fill="#FFBDA7"/>
<path d="M140.215 106.492C138.986 100.655 137.691 89.9318 137.691 89.9318L135.976 104.913C129.816 107.577 125.573 105.02 125.573 105.02C124.469 93.9209 125.013 70.8215 125.013 70.8215H147.491C148.735 82.2295 150.946 103.695 150.946 103.695C150.946 103.695 149.195 107.397 140.215 106.492Z" fill="#37474F"/>
<path d="M137.691 89.9465L136.167 82.9324C136.167 82.9324 132.767 82.1559 130.338 80.2092C130.338 80.2092 131.228 82.4467 134.953 84.1579L136.509 90.7303L136.093 103.89L137.691 89.9465Z" fill="#263238"/>
<path d="M151.195 136.616L151.011 136.013C150.812 136.211 150.842 136.381 150.834 136.922C150.834 137.349 150.834 137.761 150.779 138.327C150.707 139.068 150.572 139.8 150.374 140.517C149.98 142.18 149.539 142.85 148.369 144.907C148.089 145.393 147.419 146.206 147.22 146.747C147.022 147.288 146.963 148.219 147.588 148.587C149.366 149.64 152.108 149.353 153.844 148.536C154.495 148.239 155.047 147.762 155.434 147.162C155.822 146.561 156.029 145.861 156.03 145.146C156.03 144.723 155.942 144.304 155.924 143.881C155.938 142.905 156.191 141.947 156.66 141.091C156.927 140.596 157.141 140.074 157.3 139.534C157.536 138.552 157.072 137.562 156.685 136.679C156.354 135.917 155.968 134.898 155.707 135.015L155.81 135.685C155.537 136.097 154.706 136.594 153.679 136.789C153.024 136.922 151.268 137.117 151.195 136.616Z" fill="#455A64"/>
<path d="M128.733 130.368C128.501 130.368 128.265 130.548 127.853 131.151C127.287 131.979 126.555 132.681 125.704 133.212C124.177 134.287 121.759 135.372 119.275 136.303C117.921 136.808 117.663 137.775 118.109 138.662C118.812 139.361 121.2 140.999 125.123 139.803C127.555 139.067 128.413 137.816 130.153 137.595C131.382 137.437 133.517 137.775 134.772 136.76C135.169 135.81 134.849 134.853 134.724 133.536C134.599 132.219 134.176 130.11 133.76 130.195L133.686 130.89C133.351 132.417 129.841 132.565 128.847 131.567L128.733 130.368Z" fill="#455A64"/>
<path d="M138.213 36.9802C142.114 37.2231 147.203 37.1753 147.442 41.1717C147.81 47.3026 146.629 62.409 146.629 62.409L147.891 72.9817C145.032 76.0361 132.027 77.6332 124.726 73.1546C124.726 73.1546 124.31 50.2172 124.884 46.7469C125.914 40.4909 128.965 37.5138 131.243 37.3372L138.213 36.9802Z" fill="#BA68C8"/>
<path d="M139.972 38.9417C140.87 38.0365 141.15 37.168 140.51 37.1017C139.726 37.0465 138.938 37.0134 138.199 36.9656L132.679 37.2489C132.679 37.2489 131.424 38.5149 131.795 39.571C132.167 40.6272 133.378 41.1534 134.865 41.0945C136.769 41.0095 138.581 40.2459 139.972 38.9417Z" fill="#455A64"/>
<path opacity="0.3" d="M124.811 47.321C124.674 48.771 124.608 51.634 124.59 54.9497C131.703 57.3674 141.993 56.0721 147.111 55.1742C147.266 52.4841 147.413 50.3055 147.479 47.5492C139.376 49.3119 130.15 48.6569 124.811 47.321Z" fill="black"/>
<path d="M143.566 37.5066C146.072 37.5066 148.023 37.6648 149.775 39.8176C151 41.3191 160.104 52.5283 161.183 54.3941C162.261 56.2599 162.334 56.9922 160.737 59.3327C159.412 61.272 152.03 72.2127 149.642 74.6893C147.254 77.166 144.063 77.5818 142.484 76.9194C140.906 76.257 138.882 74.6746 142.797 72.8714C145.543 71.6202 147.121 70.3359 147.441 69.0994L147.239 67.333H148.711L153.907 56.672L144.814 46.9127C144.814 46.9127 141.701 41.4773 143.566 37.5066Z" fill="#FFBDA7"/>
<path d="M142.713 37.3483C142.713 37.3483 146.076 37.2894 147.342 37.7347C148.608 38.18 149.653 39.2067 151.438 41.4147C153.223 43.6227 158.147 49.9081 158.147 49.9081C158.147 49.9081 157.595 54.1217 152.259 55.3288L144.468 47.6376C144.468 47.6376 141.289 44.4139 142.713 37.3483Z" fill="#455A64"/>
<path d="M135.378 27.5924C138.156 25.5586 138.759 21.6578 136.725 18.8799C134.691 16.102 130.79 15.4988 128.012 17.5327C125.234 19.5665 124.631 23.4673 126.665 26.2452C128.699 29.0231 132.6 29.6263 135.378 27.5924Z" fill="#263238"/>
<path d="M142.547 26.8308C142.547 26.8308 141.605 31.5927 141.211 32.3839C140.945 32.8699 140.5 33.2329 139.971 33.3959V30.0582L142.547 26.8308Z" fill="#263238"/>
<path d="M141.167 20.0561C141.519 20.0086 141.878 20.0422 142.215 20.1545C142.553 20.2667 142.86 20.4546 143.114 20.7038C143.96 21.5428 143.537 24.2108 142.54 26.831L140.645 27.0775L141.167 20.0561Z" fill="#263238"/>
<path d="M140.071 27.0884C140.458 27.3129 140.991 26.5695 141.455 26.069C141.919 25.5685 143.442 24.873 144.233 26.4775C145.024 28.082 143.615 30.3047 142.412 30.7021C140.34 31.3903 140.005 30.0581 140.005 30.0581L139.972 37.7861C137.436 41.1497 130.242 40.9804 133.182 37.466L133.153 35.177C133.153 35.177 131.269 35.4935 130.349 35.3647C128.81 35.1513 127.828 33.9589 127.338 32.3066C126.551 29.657 126.234 27.5226 126.783 22.2602C127.39 16.5084 134.065 16.3428 137.709 18.5581C141.352 20.7735 140.071 27.0884 140.071 27.0884Z" fill="#FFBDA7"/>
<path d="M140.082 27.7324C140.273 27.7324 140.983 26.5106 141.454 26.069C142.102 25.4618 141.167 20.0559 141.167 20.0559C141.387 19.5753 141.457 19.0396 141.369 18.5185C141.28 17.9974 141.037 17.515 140.67 17.134C139.754 16.1551 138.462 14.9665 134.414 15.5111C131.504 15.9012 128.346 16.8617 125.763 15.6436C125.54 16.4792 125.57 17.3622 125.85 18.1806C126.13 18.9989 126.646 19.7157 127.334 20.2399C127.334 20.2399 128.273 20.8214 130.716 21.0827C133.16 21.3439 136.972 20.9281 137.476 20.8471C138.183 20.7404 138.345 21.4249 138.757 23.2907C139.117 24.9467 139.438 27.7287 140.082 27.7324Z" fill="#263238"/>
<path d="M141.172 20.4754L143.457 19.2021C143.382 19.048 143.275 18.9109 143.145 18.7991C143.015 18.6872 142.863 18.603 142.7 18.5514C142.536 18.4998 142.363 18.4819 142.192 18.4989C142.022 18.5159 141.856 18.5673 141.706 18.6501C141.399 18.8272 141.172 19.1158 141.073 19.4558C140.973 19.7957 141.009 20.1609 141.172 20.4754Z" fill="#263238"/>
<path d="M133.65 26.4665C133.66 26.5997 133.709 26.727 133.79 26.8328C133.872 26.9386 133.983 27.0182 134.109 27.0619C134.235 27.1055 134.371 27.1113 134.501 27.0784C134.63 27.0456 134.747 26.9756 134.837 26.877C134.928 26.7785 134.987 26.6557 135.008 26.5238C135.029 26.392 135.012 26.2568 134.957 26.1349C134.902 26.013 134.813 25.9098 134.701 25.8379C134.588 25.7661 134.457 25.7288 134.323 25.7305C134.23 25.7328 134.138 25.7539 134.054 25.7925C133.969 25.8311 133.893 25.8864 133.83 25.9551C133.767 26.0239 133.719 26.1046 133.688 26.1925C133.657 26.2803 133.644 26.3736 133.65 26.4665Z" fill="#263238"/>
<path d="M134.043 23.9753L135.515 24.7591C135.616 24.5559 135.634 24.3214 135.565 24.1052C135.496 23.889 135.346 23.7079 135.147 23.5999C135.05 23.551 134.944 23.522 134.836 23.5144C134.728 23.5069 134.619 23.521 134.516 23.5559C134.413 23.5909 134.319 23.646 134.237 23.718C134.156 23.79 134.09 23.8774 134.043 23.9753Z" fill="#263238"/>
<path d="M127.212 24.656L128.533 23.6035C128.47 23.5141 128.388 23.4386 128.294 23.3818C128.2 23.325 128.095 23.2881 127.986 23.2732C127.877 23.2584 127.766 23.266 127.661 23.2956C127.555 23.3252 127.456 23.3761 127.371 23.4453C127.193 23.5879 127.078 23.7934 127.048 24.0189C127.019 24.2444 127.078 24.4727 127.212 24.656Z" fill="#263238"/>
<path d="M127.849 26.4665C127.859 26.5997 127.908 26.727 127.989 26.8328C128.071 26.9386 128.182 27.0182 128.308 27.0619C128.434 27.1055 128.57 27.1113 128.7 27.0784C128.829 27.0456 128.946 26.9756 129.036 26.877C129.127 26.7785 129.186 26.6557 129.207 26.5238C129.228 26.392 129.211 26.2568 129.156 26.1349C129.101 26.013 129.012 25.9098 128.9 25.8379C128.787 25.7661 128.656 25.7288 128.522 25.7305C128.429 25.7333 128.338 25.7547 128.253 25.7935C128.169 25.8323 128.093 25.8876 128.03 25.9562C127.967 26.0248 127.919 26.1054 127.888 26.193C127.857 26.2807 127.843 26.3737 127.849 26.4665Z" fill="#263238"/>
<path d="M133.152 35.1955C133.152 35.1955 136.512 34.5367 137.693 33.9111C138.316 33.5509 138.789 32.9808 139.029 32.303C138.966 32.9742 138.71 33.6129 138.293 34.143C137.429 35.247 133.171 36.2185 133.171 36.2185L133.152 35.1955Z" fill="#F0997A"/>
<path d="M133.874 31.1255L131.986 31.8357C132.027 31.9627 132.093 32.0802 132.181 32.181C132.268 32.2818 132.375 32.3639 132.495 32.4223C132.615 32.4808 132.746 32.5143 132.879 32.521C133.012 32.5277 133.145 32.5074 133.271 32.4613C133.525 32.3601 133.729 32.1643 133.842 31.9152C133.954 31.666 133.966 31.383 133.874 31.1255Z" fill="#F0997A"/>
<path d="M131.875 25.771L131.65 29.8448L129.523 29.1198L131.875 25.771Z" fill="#F0997A"/>
<path d="M54.4449 37.7531L54.0511 37.7936C52.7571 37.9319 51.4486 37.8139 50.2002 37.4463C48.9518 37.0788 47.7881 36.4688 46.7755 35.6514C45.7629 34.8339 44.9213 33.825 44.2988 32.6822C43.6762 31.5394 43.285 30.2851 43.1473 28.991C42.8846 26.4706 43.6324 23.9488 45.2268 21.9791C46.8212 20.0094 49.1319 18.7527 51.6518 18.4846L52.7558 18.3669C55.2705 18.1026 57.7877 18.8445 59.7571 20.4305C61.7264 22.0165 62.988 24.3176 63.2659 26.8309C63.4056 28.1276 63.2882 29.4391 62.9203 30.6903C62.5524 31.9415 61.9412 33.1078 61.1218 34.1224C60.3024 35.137 59.2908 35.98 58.1451 36.603C56.9994 37.226 55.7419 37.6169 54.4449 37.7531Z" fill="#263238"/>
<path d="M49.3516 19.0146C51.9559 17.959 54.6243 17.0691 57.3408 16.3502C58.4155 16.0395 59.5399 15.9383 60.6528 16.0522C61.207 16.1149 61.7399 16.3016 62.2119 16.5985C62.684 16.8954 63.0831 17.2948 63.3797 17.767C64.0421 18.9594 63.7477 20.516 62.916 21.6053C63.6462 21.8267 64.2889 22.2707 64.7544 22.8752C65.2199 23.4797 65.4849 24.2145 65.5125 24.977C65.5401 25.7394 65.3288 26.4915 64.9081 27.128C64.4875 27.7645 63.8785 28.2538 63.1663 28.5274C62.2059 28.8334 61.1858 28.9028 60.1928 28.7298C58.0979 28.5215 56.0678 27.8865 54.2276 26.864C52.3815 25.8315 50.9131 24.2367 50.036 22.3118" fill="#263238"/>
<path d="M59.3254 133.739C58.284 132.554 58.111 131.431 58.3134 129.286C58.5158 127.14 60.7054 108.468 61.2574 103.794C62.1995 95.9413 62.527 73.5264 62.0155 68.0469L40.9806 69.1509C39.3577 72.9229 38.1139 77.5854 38.1581 84.9749C38.1912 90.5942 37.6613 105.826 37.6613 105.826C37.6613 105.826 35.0411 107.997 33.0944 112.372C31.3758 116.236 29.1605 129.668 29.1605 129.668C28.9873 130.253 28.7708 130.824 28.5128 131.376C28.0387 131.921 27.7556 132.606 27.7069 133.326C27.6451 135.659 27.8314 137.992 28.2625 140.285C28.487 141.474 29.2046 142.25 30.3675 142.751C30.626 142.864 30.9063 142.918 31.1881 142.909C31.3342 142.911 31.4763 142.862 31.5893 142.769C31.7953 142.574 31.6261 142.1 31.5893 141.86C31.539 141.477 31.5144 141.091 31.5157 140.705C31.5157 139.947 31.5598 139.019 31.6297 138.265C31.7742 136.567 32.0924 134.889 32.5792 133.256L33.0097 132.296C33.0097 132.296 42.6035 114.161 45.3083 109.752C47.4574 106.289 49.1797 92.6845 50.8283 85.2656L52.8228 103.154C52.1602 104.991 51.6542 106.881 51.3104 108.803C50.843 112.115 52.8376 125.12 53.4153 129.746C53.5239 130.602 53.5116 131.469 53.3785 132.322C53.5736 134.327 55.0566 134.982 56.5765 136.153C57.3345 136.734 60.6686 138.883 62.7037 139.351C64.3596 139.719 65.011 139.104 65.2576 138.64C63.1054 137.23 61.1158 135.586 59.3254 133.739Z" fill="#FFA8A7"/>
<path d="M25.8223 133.97C25.6428 134.077 25.488 134.22 25.3681 134.391C25.2482 134.561 25.1659 134.756 25.1267 134.96C24.9832 135.667 25.1672 136.609 25.4027 137.536C25.6383 138.464 25.6051 140.44 25.5131 141.879C25.4164 143.244 25.8077 144.599 26.6171 145.702C27.3752 146.689 28.7184 147.425 30.4627 147.487C32.2071 147.55 33.116 147.314 33.7747 146.968C34.4335 146.622 34.7168 144.856 33.6275 144.447C32.5383 144.039 28.7994 143.343 27.9935 139.881C27.5145 137.829 26.7853 135.844 25.8223 133.97Z" fill="#263238"/>
<path d="M28.5133 131.376C28.6466 131.781 28.7113 132.205 28.7046 132.631C28.7695 132.983 28.8101 133.34 28.8261 133.698C28.8261 134.015 28.8813 134.394 29.172 134.515C29.2909 134.55 29.4174 134.55 29.5363 134.515C29.6552 134.48 29.7613 134.411 29.8417 134.316C29.9971 134.123 30.1421 133.922 30.276 133.713C30.4355 133.505 30.6393 133.335 30.8726 133.216C31.1059 133.097 31.3628 133.031 31.6247 133.024C31.8866 133.016 32.1468 133.067 32.3865 133.173C32.6262 133.279 32.8393 133.437 33.0102 133.635L32.8814 133.93C31.8598 136.44 31.6362 139.204 32.2411 141.846C32.349 142.359 32.6295 142.82 33.036 143.152C33.3836 143.423 33.7108 143.72 34.0149 144.039C34.1669 144.2 34.2822 144.393 34.3527 144.603C34.4232 144.813 34.4473 145.036 34.4233 145.257C34.351 145.587 34.1581 145.878 33.8824 146.074C33.6094 146.267 33.3058 146.412 32.9845 146.504C31.44 147.014 29.7592 146.916 28.2851 146.228C27.6631 145.9 27.1302 145.425 26.7321 144.845C25.9005 143.303 26.0366 141.857 26.0587 140.547C26.1102 137.654 25.6907 136.149 25.4773 134.695C25.2417 132.922 27.9723 131.082 28.5133 131.376Z" fill="#455A64"/>
<path d="M52.5466 136.554C52.4436 137.235 52.3737 137.536 53.209 138.166C54.0444 138.795 55.3361 139.24 56.337 139.638C57.338 140.035 58.7474 141.165 59.3546 141.731C59.9618 142.298 62.3207 143.318 64.2417 143.255C66.1626 143.192 67.2777 142.758 67.7414 142.346C68.205 141.934 68.6871 140.48 67.458 140.079C66.2289 139.678 52.5466 136.554 52.5466 136.554Z" fill="#263238"/>
<path d="M53.4185 131.744C53.3561 131.758 53.2986 131.789 53.2515 131.832C53.2044 131.875 53.1693 131.93 53.1498 131.991C52.9732 132.532 52.9658 133.154 52.837 133.709C52.642 134.581 52.4212 135.833 52.5463 136.539C52.6714 137.246 53.6025 137.952 55.3726 138.504C56.4361 138.839 58.3166 139.814 59.185 140.635C60.2338 141.64 62.497 142.512 64.0574 142.6C65.8753 142.703 67.7852 142.265 68.2562 140.97C68.455 140.422 68.3519 139.571 66.0482 138.394C66.0482 138.394 64.2929 137.452 63.6342 137.018C62.4744 136.281 61.3854 135.438 60.381 134.5C60.0171 134.149 59.6823 133.769 59.3801 133.363C59.2217 133.175 59.0801 132.973 58.9569 132.76C58.8203 132.368 58.7301 131.962 58.6882 131.549C58.6719 131.418 58.6266 131.292 58.5557 131.181C58.4592 131.067 58.3312 130.984 58.1877 130.942C57.8417 130.812 57.4683 130.772 57.1027 130.826C56.7371 130.88 56.3911 131.026 56.097 131.25C55.8029 131.473 55.5704 131.768 55.4212 132.106C55.272 132.444 55.2109 132.815 55.2437 133.183C55.1186 133.246 54.9641 133.128 54.9236 132.992C54.9033 132.851 54.8922 132.71 54.8905 132.568C54.8592 132.418 54.7891 132.278 54.6871 132.163C54.5851 132.048 54.4547 131.962 54.309 131.913C54.0328 131.778 53.7251 131.719 53.4185 131.744Z" fill="#455A64"/>
<path d="M49.834 90.896C50.099 88.8941 50.7504 86.1709 50.7504 86.1709L51.3024 90.8224L52.4873 102.904C52.0775 104.029 51.7311 105.177 51.4496 106.341C50.8497 108.674 50.916 112.597 51.284 115.173C51.652 117.749 52.4395 122.364 52.4395 122.364C56.1931 124.45 59.1334 122.489 59.1334 122.489C59.1334 122.489 60.0056 117.293 60.9108 109.8C61.8161 102.308 62.2356 94.8778 62.4491 88.6402C62.4491 88.6402 63.4169 73.1216 61.0654 62.5527C57.919 64.6466 48.73 64.8416 45.1052 61.8167C45.1052 61.8167 43.556 64.2307 40.174 69.6219C37.5171 73.8539 38.0838 80.7797 37.8888 86.5499C37.587 95.4555 37.3736 105.513 37.3736 105.513C36.1633 106.793 35.0743 108.183 34.1204 109.664C32.4276 112.24 31.4414 118.025 31.4414 118.025C31.4414 118.025 32.9907 121.554 38.5843 121.852C38.5843 121.852 44.2809 112.093 45.7051 109.881C47.1292 107.669 49.5691 92.8943 49.834 90.896Z" fill="#37474F"/>
<path d="M50.75 86.1708L52.9985 78.3619C52.9985 78.3619 56.9214 78.0454 60.0273 75.8889C60.0273 75.8889 59.3244 78.7483 53.9148 79.4512L51.3903 87.1092V91.8491L50.75 86.1708Z" fill="#263238"/>
<path d="M63.5132 48.6827C61.5554 45.4737 57.5626 42.3605 56.2673 41.2785L48.5724 41.1313C47.0599 41.1718 44.8409 41.308 44.8409 41.308C43.218 42.1213 43.2438 44.1121 43.1407 45.9889C43.023 48.0497 42.9898 48.955 43.4682 52.3738L44.3882 56.7419L44.5281 57.4117C44.5538 57.5257 44.5759 57.6435 44.6017 57.7797C44.955 59.4537 44.6937 61.199 43.8657 62.6961C42.0257 66.0081 39.8655 68.4995 39.2031 71.3074C40.2129 71.0542 41.1413 70.5476 41.9006 69.8354C43.0634 68.7792 43.7626 68.2934 44.7047 67.0349C44.7047 67.0349 44.7452 68.9485 46.5778 71.5061C47.0477 72.162 47.5896 72.7631 48.1934 73.2982C51.5274 76.2422 61.7578 77.751 62.3282 68.8123C62.3282 68.8123 61.3457 63.1377 61.2058 61.2352C61.537 59.6049 62.4681 56.7897 62.5049 56.1605C64.9006 54.096 64.941 51.0195 63.5132 48.6827Z" fill="#BA68C8"/>
<path d="M48.6411 42.688C49.3771 43.5785 51.1766 45.562 52.8583 45.9043C54.8345 46.3054 56.8695 46.1361 57.3737 44.918C57.8779 43.7 56.91 42.228 56.0195 41.2822L48.5711 41.1387H48.0302C48.0044 41.2748 47.8094 41.6539 48.6411 42.688Z" fill="#455A64"/>
<path opacity="0.3" d="M43.2461 50.6663C43.305 51.1594 43.3749 51.7224 43.4669 52.3738L44.3869 56.7419L44.5267 57.4117C44.5525 57.5258 44.5746 57.6435 44.6003 57.7797C44.7057 58.3251 44.7526 58.8803 44.7402 59.4357C52.2695 61.9675 58.3562 60.6575 61.6424 59.4357C62.0104 58.0336 62.4704 56.58 62.4962 56.1495C63.3182 55.4707 63.9233 54.5658 64.2365 53.5468C64.5498 52.5278 64.5576 51.4394 64.2589 50.416C62.5072 51.3176 59.9165 51.8586 57.2374 52.1088C52.5242 52.5541 47.7694 52.0639 43.2461 50.6663Z" fill="black"/>
<path opacity="0.1" d="M58.796 55.7004C58.796 55.7004 56.22 57.8679 53.1324 56.9074C52.2704 56.6683 51.4844 56.2112 50.8501 55.5802C50.2159 54.9492 49.7549 54.1655 49.5113 53.3047C49.5113 53.3047 49.32 56.7896 53.1913 57.8311C56.9376 58.832 58.796 55.7004 58.796 55.7004Z" fill="black"/>
<path d="M82.4164 68.9412C82.3447 68.8563 82.2502 68.7938 82.1441 68.7609C78.2948 67.2411 73.9892 68.6174 70.6367 68.2015L70.6882 69.3497C72.2817 70.3323 74.2505 70.5163 76.1162 70.3691C77.982 70.2219 79.8146 69.7839 81.6804 69.6147C81.8838 69.6175 82.0843 69.5667 82.2618 69.4675C82.3496 69.4158 82.4144 69.3326 82.4431 69.2349C82.4718 69.1372 82.4623 69.0322 82.4164 68.9412Z" fill="#F28F8F"/>
<path d="M55.3876 69.7582C54.4271 69.5374 52.5908 68.7609 51.9394 67.8961C50.7692 66.3395 40.9988 51.5054 40.3989 47.428C39.9169 44.1454 41.4588 41.2456 44.8407 41.3081C47.0193 42.8905 49.1647 48.9294 49.1647 48.9294L56.8927 63.1158C59.6196 64.3891 69.1618 67.5318 70.8436 68.047C72.5253 68.5622 75.9551 68.1868 78.244 68.9155C80.533 69.6441 86.318 72.0472 85.1514 73.1328C84.2572 73.9571 83.293 74.774 81.6848 74.8918C79.7087 75.0316 79.4769 74.2515 77.4933 74.2036C75.5098 74.1558 73.8575 74.752 71.7673 73.9387C70.4461 73.4235 70.3873 73.1217 68.5473 72.6764C66.7073 72.2312 56.6314 70.0416 55.3876 69.7582Z" fill="#FFA8A7"/>
<path d="M45.8083 41.2492C44.1008 40.9548 41.7603 41.2087 40.3251 43.402C38.8899 45.5953 40.1521 48.6387 41.0611 50.6737C41.97 52.7087 44.9472 57.4081 44.9472 57.4081C44.9472 57.4081 51.3982 56.9407 52.6163 53.706C52.6163 53.695 48.6824 45.2935 45.8083 41.2492Z" fill="#455A64"/>
<path d="M59.9177 22.9705C60.9849 23.666 62.214 26.4812 61.8239 32.2477C61.4927 37.1348 59.8551 38.2719 59.0419 38.5847C58.2286 38.8975 56.7051 38.6178 55.222 38.305L55.0895 41.249C55.0895 41.249 56.9295 42.7909 56.7345 44.1305C56.5395 45.47 53.5292 45.8417 51.6561 44.4396C50.6092 43.6881 49.6834 42.7809 48.9108 41.7495L49.2494 34.1393C49.2494 34.1393 48.2263 35.1917 46.6255 34.0215C46.2993 33.7842 46.0279 33.4797 45.8294 33.1285C45.631 32.7773 45.5103 32.3876 45.4754 31.9857C45.4405 31.5838 45.4923 31.1791 45.6272 30.799C45.7622 30.4188 45.9771 30.0721 46.2575 29.7821C47.2585 28.8511 49.0617 29.4399 49.3855 30.8015C49.3855 30.8015 51.5126 30.7647 54.659 28.9615C58.0814 27.0258 58.9756 24.9871 59.9177 22.9705Z" fill="#FFA8A7"/>
<path d="M55.5373 30.6176C55.533 30.738 55.4934 30.8544 55.4234 30.9524C55.3535 31.0505 55.2563 31.1258 55.1439 31.1691C55.0315 31.2123 54.9089 31.2216 54.7912 31.1957C54.6736 31.1699 54.5662 31.11 54.4823 31.0236C54.3984 30.9372 54.3417 30.8281 54.3193 30.7098C54.2969 30.5914 54.3098 30.4691 54.3563 30.358C54.4029 30.247 54.481 30.152 54.5811 30.085C54.6811 30.0179 54.7986 29.9818 54.9191 29.981C55.0017 29.9814 55.0834 29.9983 55.1594 30.0307C55.2354 30.0631 55.3042 30.1103 55.3617 30.1696C55.4193 30.2289 55.4645 30.299 55.4946 30.3759C55.5248 30.4528 55.5393 30.535 55.5373 30.6176Z" fill="#263238"/>
<path d="M56.0687 34.9048L57.813 35.5451C57.7761 35.6622 57.716 35.7706 57.6362 35.8639C57.5564 35.9573 57.4586 36.0335 57.3487 36.0881C57.2387 36.1428 57.1189 36.1746 56.9963 36.1819C56.8738 36.1891 56.751 36.1715 56.6354 36.1302C56.4011 36.0385 56.2113 35.8598 56.1057 35.6314C56.0001 35.4031 55.9868 35.1427 56.0687 34.9048Z" fill="#F28F8F"/>
<path d="M61 29.072L59.793 28.152C59.8496 28.0717 59.9218 28.0035 60.0053 27.9516C60.0887 27.8996 60.1817 27.8649 60.2787 27.8495C60.3758 27.834 60.475 27.8382 60.5704 27.8617C60.6659 27.8852 60.7556 27.9276 60.8344 27.9864C60.9956 28.1118 61.1026 28.2943 61.1334 28.4962C61.1642 28.6981 61.1165 28.9042 61 29.072Z" fill="#263238"/>
<path d="M60.6459 30.5183C60.6483 30.6006 60.6344 30.6825 60.6049 30.7594C60.5755 30.8363 60.531 30.9065 60.4742 30.9661C60.4174 31.0257 60.3493 31.0734 60.2739 31.1064C60.1985 31.1394 60.1173 31.1572 60.035 31.1586C59.9073 31.1645 59.7807 31.132 59.6716 31.0653C59.5625 30.9986 59.4759 30.9008 59.4228 30.7844C59.3698 30.6681 59.3529 30.5385 59.3742 30.4124C59.3954 30.2863 59.454 30.1695 59.5423 30.077C59.6305 29.9845 59.7445 29.9205 59.8694 29.8933C59.9944 29.8661 60.1246 29.877 60.2433 29.9244C60.362 29.9719 60.4638 30.0539 60.5356 30.1597C60.6073 30.2655 60.6457 30.3904 60.6459 30.5183Z" fill="#263238"/>
<path d="M57.6578 30.0325L57.5879 33.7382L59.564 33.223L57.6578 30.0325Z" fill="#F28F8F"/>
<path d="M55.2209 38.3051C53.6569 38.0255 50.459 36.9546 50.0137 35.6519C50.1864 36.3077 50.5564 36.8948 51.0735 37.3336C52.0045 38.2058 55.1767 39.284 55.1767 39.284L55.2209 38.3051Z" fill="#F28F8F"/>
<path d="M76.6987 38.4339C76.5551 35.6702 77.339 34.8606 78.3252 34.1982C79.3115 33.5358 82.9583 32.59 83.7127 32.855C84.4671 33.12 88.4195 35.063 88.2318 36.9803C88.0441 38.8976 86.2446 39.376 84.2537 38.9196C82.2628 38.4633 78.8404 36.2112 78.1081 36.5313C77.3758 36.8515 76.6987 38.4339 76.6987 38.4339Z" fill="#FFA8A7"/>
<path d="M122.434 41.1092C123.144 40.789 124.196 41.2527 125.816 40.9178C127.435 40.5829 128.517 39.9169 129.466 39.8396C130.416 39.7623 130.817 39.4716 129.853 38.938C128.888 38.4044 127.207 38.6289 126.872 38.5001C127.385 38.1711 127.946 37.9229 128.535 37.7641C129.916 37.5194 131.309 37.3462 132.708 37.2452C132.786 37.2452 133.297 36.4172 130.909 36.086C128.52 35.7548 125.021 36.2663 123.711 36.9618C122.401 37.6573 122.434 41.1092 122.434 41.1092Z" fill="#B16668"/>
<path d="M28.7071 33.8082C28.7154 33.9517 28.6816 34.0945 28.6098 34.2189C28.5379 34.3434 28.4312 34.4441 28.3028 34.5086C28.1743 34.5732 28.0298 34.5987 27.8871 34.582C27.7443 34.5654 27.6095 34.5073 27.4994 34.4149C27.3893 34.3226 27.3086 34.2 27.2673 34.0624C27.2261 33.9247 27.226 33.7779 27.2672 33.6402C27.3083 33.5025 27.3889 33.3799 27.4989 33.2874C27.609 33.195 27.7437 33.1368 27.8864 33.12C27.986 33.1083 28.087 33.1171 28.1831 33.1458C28.2792 33.1745 28.3684 33.2226 28.4452 33.287C28.5221 33.3515 28.585 33.4309 28.63 33.5206C28.675 33.6102 28.7012 33.7081 28.7071 33.8082Z" fill="#BA68C8"/>
<path d="M30.373 27.725L31.5138 28.6597L32.9269 28.2475C32.9569 28.2382 32.9889 28.2376 33.0192 28.2458C33.0495 28.254 33.0769 28.2706 33.0981 28.2938C33.1193 28.3169 33.1335 28.3456 33.139 28.3765C33.1446 28.4074 33.1412 28.4393 33.1293 28.4683L32.5957 29.841L33.4237 31.059C33.442 31.0847 33.4526 31.115 33.4542 31.1464C33.4559 31.1778 33.4486 31.2091 33.4332 31.2365C33.4177 31.2639 33.3948 31.2863 33.367 31.3012C33.3393 31.316 33.3079 31.3227 33.2765 31.3203L31.8045 31.2394L30.9029 32.4022C30.8835 32.4264 30.8578 32.4447 30.8287 32.4552C30.7996 32.4658 30.7682 32.4681 30.7379 32.4621C30.7075 32.456 30.6794 32.4417 30.6566 32.4208C30.6338 32.3999 30.6172 32.3731 30.6085 32.3434L30.2331 30.9118L28.8347 30.4187C28.8057 30.4079 28.7802 30.3893 28.761 30.365C28.7418 30.3407 28.7297 30.3116 28.7259 30.2809C28.7221 30.2501 28.7268 30.2189 28.7395 30.1907C28.7522 30.1624 28.7724 30.1382 28.7979 30.1206L30.0381 29.3221L30.0859 27.8501C30.0832 27.8157 30.0913 27.7814 30.109 27.7518C30.1267 27.7222 30.1533 27.699 30.1849 27.6852C30.2165 27.6714 30.2516 27.6678 30.2853 27.675C30.319 27.6821 30.3497 27.6996 30.373 27.725Z" fill="#BA68C8"/>
<path d="M161.782 34.3234C162.01 34.3416 162.222 34.4461 162.376 34.6155C162.529 34.7849 162.612 35.0065 162.608 35.2351C162.604 35.4636 162.513 35.682 162.353 35.8456C162.193 36.0092 161.977 36.1058 161.749 36.1156C161.626 36.1208 161.504 36.101 161.39 36.0572C161.275 36.0134 161.171 35.9467 161.083 35.8611C160.996 35.7755 160.926 35.6728 160.88 35.5595C160.833 35.4461 160.81 35.3244 160.813 35.2019C160.815 35.0794 160.842 34.9586 160.893 34.847C160.944 34.7354 161.017 34.6354 161.107 34.5531C161.198 34.4708 161.305 34.408 161.421 34.3685C161.537 34.329 161.66 34.3136 161.782 34.3234Z" fill="#BA68C8"/>
<path d="M152.135 30.3342L153.938 28.5678L153.507 26.0838C153.498 26.0309 153.503 25.9763 153.523 25.9264C153.543 25.8764 153.576 25.833 153.62 25.8012C153.663 25.7693 153.715 25.7503 153.768 25.7463C153.822 25.7422 153.875 25.7534 153.923 25.7784L156.164 26.9486L158.394 25.771C158.442 25.7453 158.495 25.7335 158.549 25.7369C158.603 25.7403 158.655 25.7588 158.699 25.7903C158.742 25.8218 158.776 25.865 158.797 25.915C158.817 25.9649 158.823 26.0196 158.814 26.0728L158.372 28.5604L160.212 30.3195C160.251 30.3568 160.278 30.4041 160.29 30.456C160.303 30.5079 160.301 30.5624 160.285 30.6133C160.269 30.6642 160.238 30.7095 160.197 30.744C160.157 30.7786 160.107 30.8011 160.054 30.8089L157.559 31.1769L156.455 33.4401C156.431 33.4883 156.395 33.5288 156.349 33.5572C156.304 33.5855 156.251 33.6005 156.197 33.6005C156.144 33.6005 156.091 33.5855 156.046 33.5572C156 33.5288 155.963 33.4883 155.94 33.4401L154.836 31.1769L152.337 30.8089C152.283 30.8062 152.231 30.7885 152.187 30.7577C152.143 30.7269 152.109 30.6843 152.087 30.6348C152.066 30.5853 152.06 30.5309 152.068 30.4777C152.076 30.4246 152.099 30.3749 152.135 30.3342Z" fill="#BA68C8"/>
<path d="M167.125 65.1101L167.666 66.3098L168.962 66.549C168.989 66.5545 169.014 66.5673 169.034 66.5861C169.054 66.6049 169.069 66.6289 169.077 66.6554C169.084 66.682 169.084 66.7102 169.077 66.7368C169.07 66.7635 169.055 66.7876 169.035 66.8066L168.06 67.6898L168.233 68.9925C168.238 69.0203 168.234 69.0488 168.223 69.0747C168.212 69.1006 168.194 69.1228 168.171 69.1387C168.148 69.1546 168.12 69.1635 168.092 69.1643C168.064 69.1651 168.036 69.1579 168.012 69.1434L166.868 68.4884L165.683 69.0588C165.658 69.0715 165.629 69.0768 165.601 69.074C165.574 69.0712 165.547 69.0605 165.525 69.043C165.503 69.0256 165.486 69.0023 165.477 68.9757C165.468 68.9491 165.466 68.9205 165.473 68.8932L165.742 67.6052L164.833 66.6557C164.813 66.6354 164.8 66.6101 164.794 66.5827C164.788 66.5552 164.79 66.5267 164.8 66.5003C164.81 66.4739 164.826 66.4507 164.848 66.4333C164.87 66.4159 164.897 66.405 164.925 66.4018L166.231 66.2583L166.857 65.1028C166.87 65.0784 166.89 65.0581 166.914 65.0443C166.938 65.0304 166.965 65.0235 166.993 65.0242C167.021 65.025 167.048 65.0334 167.071 65.0486C167.095 65.0637 167.113 65.085 167.125 65.1101Z" fill="#BA68C8"/>
<path d="M22.7339 56.087L24.7873 57.5295L27.1499 56.6426C27.2012 56.6239 27.2569 56.6202 27.3102 56.6321C27.3636 56.6439 27.4125 56.6707 27.4512 56.7094C27.4898 56.748 27.5166 56.7969 27.5284 56.8503C27.5403 56.9036 27.5366 56.9593 27.5179 57.0106L26.7819 59.4284L28.3569 61.4009C28.3906 61.4426 28.412 61.493 28.4185 61.5462C28.4251 61.5995 28.4166 61.6535 28.3939 61.7022C28.3713 61.7509 28.3355 61.7922 28.2906 61.8216C28.2457 61.8509 28.1934 61.8671 28.1398 61.8682L25.6153 61.9161L24.2243 64.0247C24.1947 64.0696 24.153 64.1052 24.1042 64.1276C24.0553 64.15 24.0011 64.1582 23.9478 64.1513C23.8945 64.1444 23.8442 64.1227 23.8027 64.0886C23.7611 64.0545 23.7299 64.0094 23.7127 63.9585L22.8884 61.5738L20.4523 60.9041C20.4002 60.89 20.3532 60.8615 20.3165 60.8219C20.2799 60.7823 20.2552 60.7332 20.2452 60.6802C20.2352 60.6272 20.2404 60.5724 20.2601 60.5222C20.2798 60.472 20.3132 60.4283 20.3566 60.3962L22.3695 58.8727L22.2555 56.3519C22.2436 56.2922 22.251 56.2303 22.2766 56.1751C22.3022 56.1199 22.3447 56.0742 22.3979 56.0447C22.4511 56.0152 22.5124 56.0034 22.5728 56.011C22.6332 56.0186 22.6896 56.0452 22.7339 56.087Z" fill="#BA68C8"/>
<path d="M163.671 69.9752C163.693 70.1128 163.66 70.2537 163.579 70.3668C163.497 70.48 163.374 70.5562 163.237 70.5788C163.099 70.6 162.958 70.5659 162.845 70.4839C162.732 70.4019 162.656 70.2786 162.633 70.1408C162.612 70.0033 162.646 69.8629 162.728 69.7505C162.81 69.6381 162.934 69.5627 163.071 69.541C163.139 69.5295 163.209 69.5316 163.276 69.5473C163.343 69.5629 163.406 69.5918 163.462 69.6323C163.518 69.6727 163.565 69.7238 163.601 69.7827C163.637 69.8416 163.661 69.9071 163.671 69.9752Z" fill="#BA68C8"/>
<path d="M30.3069 58.4604C30.3262 58.5772 30.3105 58.6971 30.2618 58.805C30.213 58.9129 30.1335 59.0039 30.0331 59.0667C29.9327 59.1294 29.816 59.1611 29.6977 59.1577C29.5794 59.1543 29.4647 59.1159 29.3681 59.0474C29.2716 58.979 29.1974 58.8834 29.155 58.7729C29.1126 58.6624 29.1039 58.5418 29.1299 58.4263C29.1559 58.3108 29.2155 58.2056 29.3012 58.1239C29.3869 58.0422 29.4948 57.9877 29.6114 57.9673C29.6895 57.9536 29.7695 57.9555 29.8469 57.9729C29.9242 57.9903 29.9973 58.0229 30.062 58.0688C30.1267 58.1146 30.1816 58.1728 30.2237 58.2401C30.2657 58.3073 30.294 58.3822 30.3069 58.4604Z" fill="#BA68C8"/>
</svg>
